<svg viewBox="0 0 64 64" xmlns="http://www.w3.org/2000/svg"><path d="M43.72 21.895v-.135h-.22v.135h.22zm1.47 3.54v.065h.155a.59.59 0 0 1 .045-.215v-.135c-.065 0-.13.105-.19.29zm-5.74 4.46a7.03 7.03 0 0 0-1.175-1.5c0-.16.25-.395.795-.71l1.555-1.355a3.895 3.895 0 0 0 .615-2.155v-.23c-.06-.69-.56-1.245-1.5-1.67-.56-.377-1.56-.585-3-.625A17.79 17.79 0 0 0 32 22.97a19.29 19.29 0 0 1-1.815 1.145v.115a.43.43 0 0 0 .18-.08.105.105 0 0 1 .13.105l.115-.06h.055v.05a6.39 6.39 0 0 1-1.265 1l.065.12h-.055l-.14-.05c0 .04-.055.07-.17.08v.05l.135.17a.5.5 0 0 1-.195-.045.94.94 0 0 0-.58.315l.08-.345c.257-1.071.45-2.156.58-3.25v-.06a2.365 2.365 0 0 1-.565-.525 1.855 1.855 0 0 0 0-.245v-.05H28.5c-.613.923-1.798 2.498-3.555 4.725-1.333 1.583-2.023 2.463-2.07 2.64-.545.565-.805.905-.78 1-.145.095-.205.185-.18.29a.06.06 0 0 1-.08-.045c-.23.376-.608.639-1.04.725l-.5.11a.115.115 0 0 0-.095.14v.06l.18-.04v.05l-.41.16-.725.17h-.38c-.055.055.305 0 .165.03l-.5.11c-.29.065-.445.04-.5-.075h-.055a.27.27 0 0 1 0 .12l.06-.08-.38.09c-.027-.177-.542-.82-1.545-1.93 0-.215.335-.525 1.06-.93l2.04-1.795c.457-.587.728-1.528.815-2.825L20 23.815c-.08-.915-.74-1.65-2-2.22-.735-.5-2.06-.765-3.97-.805-2.13.29-4.21.865-6.185 1.71a23.695 23.695 0 0 1-2.39 1.5v.16a.625.625 0 0 0 .24-.095.135.135 0 0 1 .17.13l.16-.09h.08v.075a9.32 9.32 0 0 1-1.67 1.3l.09.14H4.45l-.17-.06c0 .045-.075.08-.24.095v.085l.185.205a.68.68 0 0 1-.25-.05c-.452.094-.841.38-1.065.785l.09.14c.154-.168.333-.311.53-.425v.23a.765.765 0 0 0-.24.095l.21.28a6.31 6.31 0 0 1 1.215-1c.22.055.335.125.34.2h.17a13 13 0 0 1 3.57-1.93v.16c-.22.333-.368.5-.445.5a.5.5 0 0 0 .115.295c.02.2-.515 1.55-1.605 4.05-2.45 5.777-4.513 10.053-6.19 12.83.015.082.05.159.1.225a2.08 2.08 0 0 0 .785-.3h.09v.16H1.8l.16-.09c0 .045.055.07.165.06v.16c-.02.244-.103.478-.24.68a3.68 3.68 0 0 0-.54 1.2v.075H1.5a9.77 9.77 0 0 0 1.53-2.205 24.41 24.41 0 0 0 4.5-1.69 4.195 4.195 0 0 0 2.37-.815v-.085l-.39.115h-.09v-.085a3.535 3.535 0 0 0 1.585-.5c1.487-1.147 2.61-1.958 3.37-2.435 1.56-1.147 2.572-2.263 3.035-3.35l.26-.06c.125.007.25.007.375 0 0-.04 0-.065.05-.075.35-.035.18 0 .405-.03l.585-.135c-.035 0-.05.03-.04.065l.09-.055h-.045.1l-.045.03a.575.575 0 0 0 .215 0l.04.17-2.71 4.165-.59.74-.29.96h.055l.29-.12-.095.375.03.11.08.1c-.035 0-.05.035-.04.075v.06l.12-.03c.177-.153.252-.293.225-.42.124.032.253.042.38.03v.06c-.115.03-.175.12-.185.28v.06h.065c.97-1.06 3.345-4.675 5.25-7.135-.06-.267.94-.637 3-1.11h.065c.073.333-.093 1.112-.5 2.335a6.29 6.29 0 0 0-.355 1.22 9.36 9.36 0 0 0-.46 1.61l-.725 2.38a21.74 21.74 0 0 0-1.08 3.855.47.47 0 0 1 .2 0l.1-.09a.06.06 0 0 0 .08.045l.005-.19h.315c.095 0 .17-.14.24-.355 0-.32.05-.5.195-.53.074-.4.195-.789.36-1.16.077-.45.213-.887.405-1.3.275-1 .5-1.5.605-1.53l.03.12-.2.5a25.345 25.345 0 0 1-1.06 3.675l.105.445h.065c.867-1.863 2.113-5.553 3.74-11.07.036-.465.295-.884.695-1.125l-.095-.1v-.05a.635.635 0 0 0 .39-.22c0-.04-.17-.105-.5-.185l.81-3.5a1.2 1.2 0 0 1 .31-.24v.175a.43.43 0 0 0-.18.08l.155.22a5 5 0 0 1 .915-.785c.17.045.25.105.26.16h.12a9.875 9.875 0 0 1 2.715-1.455v.115c-.163.247-.275.372-.335.375a.5.5 0 0 0 .075.225 21.214 21.214 0 0 1-1.205 3.08 83.724 83.724 0 0 1-4.72 9.775c.015.062.044.12.085.17a1.5 1.5 0 0 0 .59-.23h.055v.115h.13l.115-.06c0 .033.042.047.125.04V38a1.055 1.055 0 0 1-.2.53 2.655 2.655 0 0 0-.425.91v.06h.12a7.36 7.36 0 0 0 1.16-1.675 18.77 18.77 0 0 0 3.4-1.28 3.195 3.195 0 0 0 1.81-.62v-.06l-.305.09h-.065v-.06a2.68 2.68 0 0 0 1.2-.385c1.125-.865 2-1.5 2.56-1.85 1.8-1.31 2.635-2.565 2.535-3.775zm-.305.08l.04.47c-.055.115-.115.175-.17.18l-.07-.8c.13.045.195.095.2.15zm-35.28-3.79h-.08v-.145l.31-.04v.075a.62.62 0 0 0-.235.095zM2.295 41.89a1 1 0 0 0-.5-.105v-.23c0-.09.04-.15.155-.17.115-.02.165.065.17.215.132-.18.28-.348.445-.5l.17.07c-.055.465-.2.705-.43.72zM19.07 24.34c-.08 0-.24-.24-.465-.725v-.145c.15 0 .305.23.465.725v.145zm-.22-1.74l-.065.155-2.285-.95c1.52.05 2.302.315 2.345.795zm-9.62 8.26l-.32.03v-.145l.32-.03v.145zm-.26-4.96h.08v.23c-.075 0-.17.115-.295.33v-.16c.145-.17.22-.305.21-.395zm-.68 1.6l.03.305h-.08l-.03-.305zm-.355.57h.155c0 .25-.085.385-.21.395H7.8a.73.73 0 0 0 .135-.385zm-.265.79h.09v.075l-.145.24H7.46V29.1a.2.2 0 0 0 .21-.245zm-.26.715l-.045.38h-.08l-.035-.375h.16zM4.795 37c-.105.5-.215.785-.33.795v-.075a.835.835 0 0 1 .33-.72zm-.5 1.04v.075a.135.135 0 0 1-.14.17v-.075c0-.09.047-.147.14-.17zm-.14 2.155h.24v.085a.625.625 0 0 0-.24.095H4c0-.08.04-.14.14-.17zm6.895-2.13c-.847.367-1.652.825-2.4 1.365-1.457.51-2.173.828-2.15.955-.888.32-1.756.693-2.6 1.115a.93.93 0 0 1-.425-.11.685.685 0 0 1 .355-.65c.223-.02.448.014.655.1.406-.182.83-.321 1.265-.415v-.16l-.5.04c.44-.273.91-.492 1.4-.655h.24v.075c-.415.035-.645.16-.695.375 0 .1.065.14.17.13.31-.195.465-.31.46-.345.593-.113 2.228-.968 4.905-2.565v.145c0 .07-.225.265-.685.6zm-4.11 1.35c.378-.03.733-.195 1-.465.11 0 .17.035.175.13a3.58 3.58 0 0 0-1.095.5h-.08v-.155zm6.655-5.095l-2.055 1.63a21 21 0 0 1-2.465 1.5c-2.433 1.333-3.945 2.028-4.535 2.085h-.09c.073-.273 1.157-2.492 3.25-6.655a17.725 17.725 0 0 0 4.355-1.29l.5-.04a2.795 2.795 0 0 1 2.245.575l.03.305c-.373 1.07-.782 1.697-1.225 1.88zm-4-2.26l.33-.03v.075l-.33.03v-.075zm4.645-.785h.24c.225.105.34.2.35.285v.075a.68.68 0 0 1-.595-.335zm.655-3.74a9.5 9.5 0 0 1-1.76 1.31c-.315.03-1.5.5-3.535 1.38a.645.645 0 0 0-.325-.055v-.145a1.91 1.91 0 0 1 .395-1.11c.16-.84.33-1.32.5-1.435l1.7-3.825c-.02-.237.343-.418 1.09-.545h.24v.22c.73-.11 1.19-.175 1.365-.19 1.35-.115 2.055.16 2.11.815h.155l-.035-.385.205-.07c.335.138.577.438.64.795a1.24 1.24 0 0 1-.345.795c-.1 0-.165-.065-.17-.215h-.17l-.035.465c-.683 1.023-1.183 1.55-1.5 1.58-.28.385-.45.58-.5.58zm1.045 2.68a.6.6 0 0 0-.335-.13v-.23h.155l.34.2a.135.135 0 0 1-.14.17zM17 31.5c.15.06.24.125.255.185h-.12l-.11.09L17 31.5zm.105.645v-.06l.195-.045v.06l-.195.045zm.47.525c.2-.035.3-.045.67-.13v.06l-.71.165a.9.9 0 0 0 0-.095zm.69.295a3.03 3.03 0 0 0-.71.1v-.06l.59-.19.285-.065.03.11c-.125.03-.035.03-.18.105zm.63-.15a.13.13 0 0 1-.16-.095l.18-.04a.11.11 0 0 1 .15.095l-.17.04zM20.6 30.98v-.06l.295-.07.03.11h-.31zm1.82 11.17a.46.46 0 0 0 0-.185h.065a.105.105 0 0 1 .145.085v.06l-.24.055zm1.28-10.695h-.13a3.7 3.7 0 0 1-.53.175l-.12.03a.12.12 0 0 1-.155-.085l.855-.195.28-.13.095.105a.62.62 0 0 0-.29.12zm.655-.21v-.06a.355.355 0 0 0 .16-.105l.605-.14V31a4.685 4.685 0 0 0-.765.24zM24.45 30a.5.5 0 0 0-.17.105c0-.04-.095-.04-.25 0-.03-.115.42-.28 1.345-.5l.13-.03.03.11c-.65.19-1 .3-1.085.31zm1.63-1.76c-.08.76-.325 1.175-.79 1.26v-.06l-.41.16-.18.04a.46.46 0 0 1-.25 0l-.055-.14a24.631 24.631 0 0 1 1.78-2.455h.14a2.54 2.54 0 0 1-.24 1.195zm2.885-2.47h-.055v-.115h.24v.06a.785.785 0 0 0-.18.075zm-1.19 11.95a.75.75 0 0 0-.375-.085v-.175c0-.06.037-.102.11-.125.08 0 .125.045.135.17a2.04 2.04 0 0 1 .335-.385l.125.05c-.045.355-.155.54-.32.555zM40.5 24.395c-.06 0-.175-.18-.36-.56v-.115c.115 0 .24.17.36.545v.13zm-.17-1.33l-.055.12-1.725-.72c1.15.035 1.745.24 1.78.6zm-7.295 6.27h-.24v-.115h.24v.11zm-.2-3.77h.065v.175c-.06 0-.135.083-.225.25v-.115a.54.54 0 0 0 .155-.31zm-.5 1.21v.23h-.065v-.23zm-.275.435h.12c0 .197-.052.3-.155.31h-.065a.63.63 0 0 0 .1-.305zm-.195.595h.055v.06l-.105.185h-.12V28c.125 0 .18-.075.17-.19zm-.195.54l-.04.3h-.055v-.295h.12zm-2 5.65c-.08.39-.163.59-.25.6v-.05a.665.665 0 0 1 .255-.55zm-.37.785v.05a.105.105 0 0 1-.11.135v-.06c0-.06.037-.102.11-.125zm-.105 1.64h.185v.06a.535.535 0 0 0-.18.07h-.12c0-.067.037-.108.11-.125zm5.23-1.615c-.64.284-1.251.629-1.825 1.03-1.12.39-1.67.635-1.665.73a17.67 17.67 0 0 0-1.935.87.725.725 0 0 1-.32-.09.5.5 0 0 1 .27-.5c.17-.016.342.01.5.075a5.41 5.41 0 0 1 .965-.31v-.115l-.38.03a5 5 0 0 1 1.07-.5h.185v.05c-.315.03-.5.12-.53.29a.105.105 0 0 0 .13.105c.235-.155.345-.24.345-.27.447-.08 1.687-.73 3.72-1.95v.115c0 .05-.17.2-.5.455zm-3.12 1a1.25 1.25 0 0 0 .775-.35.105.105 0 0 1 .13.105 2.965 2.965 0 0 0-.83.355h-.065v-.11zm5.045-3.84l-1.55 1.25c-.6.429-1.23.813-1.885 1.15-1.843 1-2.992 1.527-3.445 1.58h-.065c.057-.21.882-1.893 2.475-5.05a13.63 13.63 0 0 0 3.305-1l.375-.035a2.1 2.1 0 0 1 1.7.445v.23c-.285.8-.59 1.27-.925 1.415zm-3.045-1.715h.24v.06h-.24v-.06zm3.525-.6h.185c.17.085.26.16.265.22v.05a.5.5 0 0 1-.455-.255zm.5-2.835a7.13 7.13 0 0 1-1.33 1c-.922.274-1.82.621-2.685 1.04a.61.61 0 0 0-.245-.035v-.115c.008-.306.11-.601.295-.845.12-.645.255-1 .395-1.085l1.3-2.905c0-.17.26-.31.82-.42h.185v.175c.55-.09.895-.142 1.035-.155 1-.09 1.56.115 1.605.62h.12v-.28h.12c.26.094.45.318.5.59a.965.965 0 0 1-.3.6c-.08 0-.125-.045-.135-.17h-.12l-.035.35c-.5.785-.895 1.195-1.13 1.21-.21.285-.34.43-.4.435zm.545 1.94v-.175h.12l.26.16a.11.11 0 0 1-.11.125.5.5 0 0 0-.255-.1zM16.18 40.065l-.12.03-.105.09a.105.105 0 0 0 .145.085c.08 0 .11-.065.095-.14v-.06zm-.46-.92v.06c.08 0 .11-.065.095-.14v-.06a.11.11 0 0 0-.095.14zm3.28-7.8l.14-.035-.03-.12-.14.035.03.12zm42.275 3.55a7.865 7.865 0 0 1-1.89.285v.115h.2l.155-.06c1.4-.155 1.565-.1 1.55-.255v-.055zm-7.625 1v.115-.115zm-.875-3.07l-.125-.04c-.07.16-.12.328-.15.5v.05c.1 0 .185-.17.27-.5zm8.79 2.035v.115l.205.035v-.115l-.205-.035zm-9.645 1.19l-.315-.035-.055.12v.06l1.885-.16v-.115l-1.5.13zm-.855-4.13v-.06H51l-.115.075.065.11c.09 0 .13-.05.12-.13zM62.455 34h.09c.05 0 .075-.045.07-.12l-.05-.11a1.5 1.5 0 0 0-.73.185V33.9l-.385.035c0-.115-.04-.175-.095-.17h-.2c-.235 0-.345 0-.46.1 0-.04 0-.06-.04-.06h-.225l-.13.075c0-.04 0-.06-.04-.06l-.08.07v-.06h-.385v.115l.16.04h.15a.27.27 0 0 0 .17.035l.13-.065V34a9.54 9.54 0 0 1-1.23.235.21.21 0 0 0-.125-.05.1.1 0 0 1-.095-.105l.26-.035c.057.018.116.033.175.045.21-.105.22-.145.33-.155v-.115a7.58 7.58 0 0 1-1.33.125h-.04v-.115c1.155-.14.77-.06 1.165-.17 0 .04 0 .06.04.06a.27.27 0 0 1 .16-.08h.08a4.23 4.23 0 0 0 1.34-.175v.05l.13-.065h.12c0-.115.17-.135.23-.14v-.125c-1.405.285-1.775.205-2.165.315v-.05a1.705 1.705 0 0 1-.5.04.245.245 0 0 0-.115.075c0-.04 0-.06-.045-.06l-1.195.195c0-.035 0-.05-.045-.045-.417.122-.846.2-1.28.23a.39.39 0 0 0-.155.065c0-.035 0-.05-.065-.045l-.5.04-.34.085c0-.035 0-.05-.065-.045-.163.047-.33.08-.5.095-.085 0 .04 0 0-.05l-.105.06h-.58c-.9.11-.8.125-.9.13h-.335a.045.045 0 0 1-.05.055c-.38-.05-.58-.11-.58-.18.05-.363.138-.55.265-.56h.065l-.055.12h.065c.12-.065.175-.125.17-.18v-.125h-.12v-.115A.42.42 0 0 1 52.52 33l.275-.445v.115h.13v-.115l-.075-.105a.5.5 0 0 1 .235-.135v-.06h-.175v-.175a5 5 0 0 0 .5-1.285l.125.05c.08 0 .115-.05.11-.135h-.12v-.05a.445.445 0 0 1 .045-.245.78.78 0 0 0 .26-.61c.035 0 .055 0 .06.055.165-.095.29-.34.38-.75A23.55 23.55 0 0 0 55.405 26c1-2.76 1-3.05 1.125-3.705h-.12a.42.42 0 0 1-.045.24.5.5 0 0 0-.195-.045v-.05c.005-.31.112-.611.305-.855h.025l.105.4h.12c.02-.169.052-.336.095-.5 0-.06-.05-.1-.145-.105l-.115.075v-.65h-.06a.455.455 0 0 1-.16-.255l-.665.065a.615.615 0 0 0-.075-.205c0-.06.145-.12.45-.18l.135.05.125-.075c0 .04.03.06.075.055l.125-.075c0 .04.03.06.075.055h.06v-.135h-.73l-.125.085v-.09c-3.127.257-4.902.405-5.325.445h-.66c0 .05-.04.08-.135.09l-.135-.06-.455.115a3.04 3.04 0 0 1-.54 0 .465.465 0 0 1-.255.1l1.335-.085a.61.61 0 0 1-.325.105.45.45 0 0 1-.265-.045c-.328.1-.662.18-1 .235l-.135-.05-2.18.335a.545.545 0 0 0-.295-.045 3.63 3.63 0 0 0-.58.125l-1.055.44.08.13a.58.58 0 0 0 .215-.085l.375.035-.045.35a.94.94 0 0 0-.6.67c-.5.23-.775.39-.775.5v.06h.08l.14-.075.165.195v.27c0 .083-.868 1.917-2.605 5.5-1.5 3.45-2.3 5.335-2.375 5.675-.5.145-.815.355-.905.635 0 .09.165.15.46.17v.135l-.135.225v.27c0 .14.377.247 1.13.32 0-.045 0-.075.07-.08a4.07 4.07 0 0 1-.14 1H39c.265-.259.44-.595.5-.96h.065c.075 0 .155.08.245.26-.093.037-.427.778-1 2.225l.08.13H39c.683-1.733 1.113-2.692 1.29-2.875.9-.08 2.455-.247 4.665-.5l.14-.085a.065.065 0 0 0 .085.065h.145l.14-.085a.065.065 0 0 0 .085.065l1.675-.145c.445-.035.65-.17.635-.4 0-.06.255-.13.785-.205a.64.64 0 0 1 .23.04c0-.04.26-.085.79-.13 0-.28.105-.43.26-.445v-.135c-.17.02-.338.058-.5.115a3.135 3.135 0 0 1-.665-.08.615.615 0 0 1-.215.085l-1.165.035-.14.075c0-.043-.028-.062-.085-.055h-.065l-.15.075c0-.04-.125-.075-.37-.105l-.15.09h-.29v-.075c1.5-.163 2.24-.367 2.22-.61a.13.13 0 0 1 .16.135l.44-.11v-.135l-3.59.1c0 .045 0 .075-.07.08l-.44-.035a.53.53 0 0 0-.28.1l-.165-.06a5 5 0 0 0-1 .165 6.365 6.365 0 0 0-1 0l-.805.07-.375-.04c0-.24.445-1.405 1.395-3.5.14-.498.406-.952.77-1.32a.54.54 0 0 1 .23.055l.575-.195.295.045a6.725 6.725 0 0 0 1.725-.425.805.805 0 0 1 .375.035l.44-.105 1.305-.11a8.65 8.65 0 0 0 1.81-.37v-.135c-.24 0-.37 0-.375-.115 0-.18-.19-.255-.53-.23v-.135l.36-.105.94-.08v-.135h-.58v-.145l.365-.035c.1 0 .14-.055.13-.15-.5 0-.735 0-.74-.075-3.41.167-5.12.198-5.13.095a.585.585 0 0 0-.215.095l-.09-.14c.903-1.92 1.433-2.887 1.59-2.9a.805.805 0 0 1-.115.36v.06h.145c.36-.855.66-1.3.915-1.32 1.07-.095-.15-.165 2.145-.5a.45.45 0 0 0 .205.055c.9-.18 2.153-.37 3.76-.57v-.135l-.855.08v-.135a.465.465 0 0 0 .255-.1v.075a.5.5 0 0 0 .195-.095.61.61 0 0 1 .34.04 4.96 4.96 0 0 1 .715-.145l.535-.05c.13-.085.19-.16.185-.23v-.06a1.69 1.69 0 0 1-.47-.03.135.135 0 0 1 .12-.15l1-.095.455-.115c0 .05.03.07.065.07a.5.5 0 0 0 .195-.095h.075a3.71 3.71 0 0 0-.2.545h-.13a.57.57 0 0 0-.075-.24h-.065c-1.21 3.375-1.75 4.945-2.87 7.535-.205.66-.375 1.03-.525 1.11a.105.105 0 0 0 .13.105c.026.338-.055.675-.23.965-.5 1.5-.86 2.305-1.04 2.455l.115.705a.11.11 0 0 1-.11.125h-.12c0-.195-.09-.29-.215-.275h-.065a2.77 2.77 0 0 0-.36.86h.12a.405.405 0 0 0 .225-.375h.24l.14.05a.75.75 0 0 0-.155.425l.065.11-.16.375v.06a.755.755 0 0 1 .455.13.815.815 0 0 0 .37-.15h1.56l.45-.155a10.5 10.5 0 0 0 .965-.04h.195l.105-.07v.06c.315-.046.636-.043.95.01v.06h-.275v.115a.395.395 0 0 0 .22-.085c.07 0 .11.035.115.115a1.64 1.64 0 0 0-.375.085l-.12-.04c-.19.05-.15.065-.28.075l-.19-.035a.045.045 0 0 1-.045.055.1.1 0 0 0 .115.105h.195l1-.09.385-.085c0 .035 0 .05.05.045l.185-.07.35-.03c.27 0 .265-.04.85-.135 0-.035 0-.05.035-.055v.05a8.6 8.6 0 0 0 1.17-.225v.03c.24-.055.105-.04.17-.09 0 .04 0 .06.04.06h.17v-.125h-.42a1.795 1.795 0 0 1-.38.03l-.855.045v-.06l.5-.065h.17l.1-.07v.06c.67-.055.91.11 4-.55.17 0 .155-.155.26-.445a.29.29 0 0 1-.165-.035 4.85 4.85 0 0 1-.885.13c-.04 0-.075-.035-.09-.105v-.05h.5a1.2 1.2 0 0 0 .5-.17c0 .04-.095.065-.035.06zm-22.955.385h-.22c.073-.347.19-.683.35-1h.145a3.81 3.81 0 0 1-.275 1zm.265-1.06v-.06c0-.075.04-.125.145-.15v.06c0 .09-.04.14-.145.15zm2.91 2.25v.06l-.365.035v-.06l.365-.035zm-.44-.035c0 .075-.105.16-.35.24l-.445-.035h-.145v-.135l.955-.09zM45.2 22H45v-.075c0-.075.035-.125.13-.15h.08l.15.06a.13.13 0 0 1-.135.15zm3.33-.65h.07v.135h-.2a.135.135 0 0 1 .12-.15zm-.84.295l-.33-.035v-.11c.287-.02.57-.073.845-.16 0 .05.05.07.135.06v.135h-.13a.45.45 0 0 1-.265-.045.57.57 0 0 1-.255.095zm.415 1.205v-.06l.535-.05v.06l-.535.05zm.575-.465v-.075h.26v.075h-.26zm.06-.915h-.07l.06-.145.595-.055v.075a3.59 3.59 0 0 0-.59.12zm.305 1.285v-.135h.26c.09 0 .137.042.14.125l-.39.035zm1.58-2.15l-.335.095h-.06a3.425 3.425 0 0 1-.605 0c.435-.03.85-.06 1-.085zm-.36 1.5v.06l-.46.04v-.06l.46-.04zm.755.36c0-.055-.095-.095-.275-.11l-.46.13h-.355c-.08-.055-.12-.095-.125-.12h.41l.92-.15h.47v.075c-.2.017-.399.058-.59.12zm4.745-1.225h.105a1.79 1.79 0 0 1 .555-.375 3.275 3.275 0 0 1-.785 1.635l-.26-.16c.154-.36.282-.732.385-1.11zm-.8 1.375h.065c-.09.17-.17.255-.235.26V22.7a.4.4 0 0 0 .18-.08zm-.5 1.235a1.75 1.75 0 0 1 .36-.86V23c-.065.465-.17.715-.305.73v.295a.66.66 0 0 0-.16.375h-.065l-.035-.405c.075 0 .135-.075.175-.195zm-.2.67a1.7 1.7 0 0 1-.135.5h-.065v-.175c.09-.205.165-.31.215-.31zM50.5 35.4v-.05h.12v.175c-.065 0-.11-.035-.13-.115zm5.37.14c0-.04 0-.06-.065-.055l-.305.015v-.05l.715-.06v.06a.63.63 0 0 0-.375.09zm-.36-.15c.03 0 0 .03 0 .035 0 .005-.035 0 0-.035zm.035-.84l-.4.035V34.5h.355l.315-.08c0 .035 0 .05.065.045.375-.065.34-.085.5-.1.06 0 .1.035.105.105l-.965.085zm1.4-.12a1.595 1.595 0 0 0-.395-.03v-.05l.36-.035v.05c-.035 0 .1 0 .035.06zm.03-.065v-.05h.195v.05h-.195zm.435-.035v-.05a.34.34 0 0 0 .14-.075.14.14 0 0 1 .16.13zm.555-.07v-.06h.24v.06h-.24zm.33-.03c0-.07 0-.11.085-.12l.08.105a.045.045 0 0 1 .035-.055l.06.11-.26-.035zm-3.5 1.5v-.115h-.035v.115zm8.185-2.12c.035 0 .055-.045-.035-.06s.045.06-.045.065v.04l.05-.035-.05.04-.1.125.195-.07V33.6zm.34.265h-.035v.115h.275c0-.075-.185-.1-.245-.1zm-.425-.205z"/><path fill="#F9DC3E" d="M45 25.065v.075h.155a.59.59 0 0 1 .045-.215v-.135c-.065 0-.13.105-.19.29zM43.5 21.5v-.135h-.22v.135h.22zm-4.26 8a7.035 7.035 0 0 0-1.175-1.5c0-.16.25-.395.795-.71L40.42 26a3.895 3.895 0 0 0 .615-2.155v-.23c-.06-.69-.56-1.245-1.5-1.67-.56-.377-1.56-.585-3-.625a17.79 17.79 0 0 0-4.705 1.29 19.32 19.32 0 0 1-1.815 1.145v.115a.435.435 0 0 0 .18-.08.105.105 0 0 1 .13.105l.115-.06h.055v.05c-.376.385-.8.721-1.26 1l.065.12h-.055l-.14-.05c0 .04-.055.07-.17.08v.05l.135.17a.5.5 0 0 1-.195-.045.94.94 0 0 0-.58.315l.08-.345c.257-1.071.45-2.156.58-3.25v-.06a2.365 2.365 0 0 1-.565-.525 1.855 1.855 0 0 0 0-.245v-.05h-.055c-.617.923-1.802 2.498-3.555 4.725-1.333 1.583-2.023 2.463-2.07 2.64-.545.565-.805.905-.78 1-.145.095-.205.185-.18.29a.06.06 0 0 1-.08-.045c-.23.376-.608.639-1.04.725l-.5.11a.115.115 0 0 0-.095.14v.06l.18-.04v.05l-.41.16-.725.17h-.38c-.055.055.305 0 .165.03l-.5.11c-.29.065-.445.04-.5-.075h-.055a.27.27 0 0 1 0 .12l-.03-.115-.38.09c-.027-.177-.542-.82-1.545-1.93 0-.215.335-.525 1.06-.93L19 26.57c.457-.587.728-1.528.815-2.825l-.03-.305c-.08-.915-.74-1.65-2-2.22-.735-.5-2.06-.765-3.97-.805a23.91 23.91 0 0 0-6.18 1.685 23.695 23.695 0 0 1-2.39 1.5v.16a.625.625 0 0 0 .24-.095.135.135 0 0 1 .17.13l.16-.09h.08v.075a9.32 9.32 0 0 1-1.67 1.3l.09.14h-.07l-.17-.06c0 .045-.075.08-.24.095v.085l.185.205a.68.68 0 0 1-.25-.05c-.452.094-.841.38-1.065.785l.09.14c.156-.166.336-.308.535-.42v.23a.765.765 0 0 0-.24.095l.19.29c.362-.383.77-.719 1.215-1 .22.055.335.125.34.2h.17a13 13 0 0 1 3.57-1.93v.16c-.22.333-.368.5-.445.5a.5.5 0 0 0 .115.295c.02.2-.515 1.55-1.605 4.05C4.213 34.673 2.153 38.955.46 41.735a.54.54 0 0 0 .1.225c.28-.046.546-.148.785-.3h.09v.16h.155l.16-.09c0 .045.055.07.165.06v.16c-.02.256-.11.501-.26.71-.25.364-.433.77-.54 1.2v.075h.155A9.775 9.775 0 0 0 2.8 41.73c1.552-.414 3.06-.98 4.5-1.69a4.195 4.195 0 0 0 2.37-.815v-.085l-.39.115h-.09v-.085a3.535 3.535 0 0 0 1.585-.5c1.487-1.147 2.61-1.958 3.37-2.435 1.56-1.147 2.573-2.263 3.04-3.35l.26-.06c.125.007.25.007.375 0 0-.04 0-.065.05-.075.35-.035.18 0 .405-.03l.57-.22h.1l-.045.03a.57.57 0 0 0 .215 0l.04.17-2.655 4.225-.59.74-.29.97h.055l.29-.12-.095.375.03.11.08.1c-.035 0-.05.035-.04.075v.06l.12-.03c.177-.153.252-.293.225-.42.124.032.253.042.38.03v.06c-.115.03-.175.12-.185.28v.06h.065c.97-1.06 3.345-4.675 5.25-7.135-.06-.267.94-.637 3-1.11h.065c.073.333-.093 1.112-.5 2.335a6.29 6.29 0 0 0-.325 1.195 9.345 9.345 0 0 0-.46 1.61l-.73 2.39a21.73 21.73 0 0 0-1.08 3.855.5.5 0 0 1 .2 0l.105-.09a.06.06 0 0 0 .08.045l-.04-.17h.315c.095 0 .17-.14.24-.355 0-.32.05-.5.195-.53.074-.4.195-.789.36-1.16.077-.45.213-.887.405-1.3.275-1 .5-1.5.605-1.53l.03.12-.2.5A25.34 25.34 0 0 1 23 41.57l.105.445h.065c.867-1.863 2.113-5.553 3.74-11.07.036-.465.295-.884.695-1.125l-.095-.1v-.05a.635.635 0 0 0 .39-.22c0-.04-.17-.105-.5-.185l.81-3.5c.09-.096.194-.177.31-.24v.175a.435.435 0 0 0-.18.08l.16.22a5 5 0 0 1 .915-.785c.17.045.25.105.26.16h.12a9.875 9.875 0 0 1 2.705-1.45v.115c-.163.247-.275.372-.335.375a.5.5 0 0 0 .075.225 21.245 21.245 0 0 1-1.205 3.08 83.706 83.706 0 0 1-4.705 9.78c.015.062.044.12.085.17a1.5 1.5 0 0 0 .585-.23h.055v.115h.13l.115-.06c0 .033.042.047.125.04v.125a1.06 1.06 0 0 1-.2.53 2.655 2.655 0 0 0-.425.91v.06h.12a7.36 7.36 0 0 0 1.16-1.675c1.18-.323 2.325-.76 3.42-1.305a3.195 3.195 0 0 0 1.81-.62v-.06l-.305.09h-.055v-.06a2.68 2.68 0 0 0 1.2-.385c1.125-.865 2-1.5 2.56-1.85C38.5 32 39.34 30.73 39.24 29.5zm-.31.08l.04.47c-.055.115-.115.175-.17.18l-.07-.8c.13.045.195.095.2.15zM3.655 25.81h-.08v-.145l.32-.03v.075a.62.62 0 0 0-.235.095zM2.085 41.5a1 1 0 0 0-.5-.105v-.23c0-.09.04-.15.155-.17.115-.02.165.065.17.215.131-.18.28-.348.445-.5l.17.07c-.055.465-.2.705-.43.72zM18.86 23.95c-.08 0-.24-.24-.465-.725v-.145c.15 0 .305.23.465.725v.145zm-.225-1.74l-.065.155-2.28-.95c1.52.05 2.302.315 2.345.795zM9 30.5l-.32.03v-.145l.32-.03v.145zm-.26-4.96h.08v.23c-.075 0-.17.115-.295.33v-.16c.145-.17.22-.305.21-.395zm-.675 1.595l.03.305h-.08L8 27.125zm-.355.57h.155c0 .25-.085.385-.21.395h-.08a.73.73 0 0 0 .135-.385zm-.25.795h.09v.075l-.145.24H7.25v-.075a.2.2 0 0 0 .21-.245zm-.26.715l-.045.38h-.08l-.035-.375h.16zm-2.615 7.41c-.105.5-.215.785-.33.795v-.075a.835.835 0 0 1 .335-.72zm-.5 1.04v.075a.135.135 0 0 1-.14.17v-.075c0-.09.047-.147.14-.17zm-.14 2.155h.24v.085a.625.625 0 0 0-.24.095H3.79c0-.08.04-.14.14-.17zm6.895-2.13a12.78 12.78 0 0 0-2.4 1.365c-1.457.513-2.178.828-2.165.945a24 24 0 0 0-2.585 1.15.93.93 0 0 1-.425-.11.685.685 0 0 1 .355-.65c.224-.017.449.02.655.11a6.39 6.39 0 0 1 1.265-.415v-.16l-.5.04c.44-.273.91-.492 1.4-.655h.24v.075c-.415.035-.645.16-.695.375 0 .1.065.14.17.13.31-.195.465-.31.46-.345.59-.113 2.225-.968 4.905-2.565v.145c0 .07-.225.265-.685.6zm-4.11 1.35c.378-.03.733-.195 1-.465.11 0 .17.035.175.13a3.61 3.61 0 0 0-1.095.5h-.08v-.155zm6.655-5.09l-2.055 1.63a20.34 20.34 0 0 1-2.47 1.5c-2.433 1.333-3.945 2.028-4.535 2.085h-.09c.073-.273 1.157-2.492 3.25-6.655a17.735 17.735 0 0 0 4.355-1.29l.5-.04a2.795 2.795 0 0 1 2.245.575l.03.305c-.37 1.065-.78 1.69-1.22 1.875zm-4-2.26l.33-.03v.075l-.33.03v-.075zM14 30.905h.24c.225.105.34.2.35.285v.075a.68.68 0 0 1-.59-.36zm.655-3.74a9.5 9.5 0 0 1-1.76 1.31c-.315.03-1.5.5-3.535 1.38a.645.645 0 0 0-.325-.055v-.145a1.91 1.91 0 0 1 .395-1.11c.16-.84.33-1.32.5-1.435l1.7-3.825c-.02-.237.343-.418 1.09-.545h.24v.22c.73-.11 1.19-.175 1.365-.19 1.35-.115 2.055.16 2.11.815h.155l-.035-.385h.17c.335.138.577.438.64.795a1.24 1.24 0 0 1-.345.795c-.105 0-.165-.065-.17-.215h-.17l-.035.465c-.683 1.023-1.183 1.55-1.5 1.58-.28.385-.45.58-.5.58zm1.045 2.68a.6.6 0 0 0-.335-.13v-.23h.155l.34.2a.135.135 0 0 1-.14.17zm1.08 1.28c.15.06.24.125.255.185h-.12l-.11.09-.03-.31zm.1.645v-.06l.195-.045v.06l-.195.045zm.47.525c.2-.035.3-.045.67-.13v.06l-.71.165a.935.935 0 0 0 0-.095zm.69.295a3.03 3.03 0 0 0-.71.1v-.06l.595-.19.285-.065.03.11c-.13.03-.035.03-.185.105zm.63-.15a.13.13 0 0 1-.16-.095l.18-.04a.11.11 0 0 1 .15.095l-.17.04zm1.705-1.835v-.06l.295-.07.03.11h-.31zm1.82 11.17a.46.46 0 0 0 0-.185h.065a.105.105 0 0 1 .145.085v.06l-.24.055zM23.5 31.08h-.13a3.69 3.69 0 0 1-.53.175l-.12.03a.12.12 0 0 1-.155-.085l.84-.2.28-.13.095.105a.625.625 0 0 0-.29.12zm.655-.21v-.06a.355.355 0 0 0 .16-.105l.605-.14v.06a4.68 4.68 0 0 0-.765.24zm.095-1.225a.5.5 0 0 0-.17.105c0-.04-.095-.04-.25 0-.03-.115.42-.28 1.345-.5l.13-.03.03.11c-.65.19-1 .3-1.085.31zm1.63-1.76c-.065.74-.325 1.16-.785 1.265v-.06l-.41.16-.18.04a.455.455 0 0 1-.25 0l-.035-.165A24.66 24.66 0 0 1 26 26.67h.14a2.54 2.54 0 0 1-.24 1.195zm2.885-2.47h-.055V25.3h.24v.06a.785.785 0 0 0-.18.075zm-1.2 11.93a.745.745 0 0 0-.375-.085v-.175c0-.06.037-.102.11-.125.08 0 .125.045.135.17a2.05 2.05 0 0 1 .335-.385l.125.05c-.045.355-.155.54-.32.555zM40.3 24c-.06 0-.175-.18-.36-.56v-.115c.115 0 .24.17.36.545V24zm-.17-1.33l-.055.12-1.725-.72c1.15.035 1.745.24 1.78.6zm-7.305 6.295h-.24v-.115h.24v.115zm-.2-3.77h.065v.175c-.06 0-.135.083-.225.25v-.115a.54.54 0 0 0 .155-.31zm-.5 1.21v.23h-.065v-.23zm-.275.435h.12c0 .197-.052.298-.155.305h-.065a.63.63 0 0 0 .1-.305zm-.195.595h.055v.065l-.105.185h-.12v-.06c.125 0 .18-.075.17-.19zM31.45 28l-.04.3h-.06v-.295h.12zm-2 5.65c-.08.39-.163.59-.25.6v-.05a.665.665 0 0 1 .255-.55zm-.37.785v.05a.105.105 0 0 1-.11.135v-.06c0-.06.037-.102.11-.125zm-.08 1.62h.185v.06a.535.535 0 0 0-.18.07h-.12c0-.067.037-.108.11-.125zm5.23-1.615c-.64.284-1.251.629-1.825 1.03-1.12.39-1.67.635-1.665.73-.667.247-1.318.534-1.95.86a.725.725 0 0 1-.32-.09.5.5 0 0 1 .27-.5c.17-.016.342.01.5.075.311-.133.634-.237.965-.31v-.115l-.375.035a5 5 0 0 1 1.07-.5h.185v.05c-.315.03-.5.12-.53.29a.105.105 0 0 0 .13.105c.235-.155.345-.24.345-.27.447-.08 1.687-.73 3.72-1.95v.115c0 .045-.17.195-.5.45zm-3.12 1a1.25 1.25 0 0 0 .775-.35c.08 0 .125.03.13.105a2.96 2.96 0 0 0-.83.355h-.065v-.11zm5.04-3.87l-1.55 1.25A15.08 15.08 0 0 1 32.705 34c-1.843 1-2.992 1.527-3.445 1.58h-.065c.057-.21.882-1.893 2.475-5.05a13.63 13.63 0 0 0 3.305-1l.375-.03a2.1 2.1 0 0 1 1.7.445v.23c-.265.825-.55 1.275-.91 1.415zm-3.045-1.715h.24v.06h-.24v-.06zm3.525-.6h.185c.17.085.26.16.265.22v.05a.5.5 0 0 1-.455-.255zm.5-2.835a7.13 7.13 0 0 1-1.33 1 17.83 17.83 0 0 0-2.7 1.08.615.615 0 0 0-.245-.035v-.115c.002-.306.1-.603.28-.85.12-.645.255-1 .395-1.085l1.305-2.915c0-.17.26-.31.82-.42h.185v.175c.55-.09.895-.142 1.035-.155 1-.09 1.56.115 1.605.62h.12v-.28h.12c.26.094.45.318.5.59a.965.965 0 0 1-.245.61c-.08 0-.125-.045-.135-.17h-.12l-.035.35c-.56.76-.935 1.18-1.185 1.18-.21.285-.34.43-.4.435zm.545 1.94v-.175h.12l.26.16a.11.11 0 0 1-.11.125.5.5 0 0 0-.255-.1zM15.97 39.695l-.12.03-.105.09a.105.105 0 0 0 .145.085c.08 0 .11-.065.095-.14v-.06zm-.47-.92v.06c.08 0 .11-.065.095-.14v-.06a.11.11 0 0 0-.095.14zm3.3-6.195l.09-.055h-.045a.055.055 0 0 0-.04.065zm0-1.605l.14-.035-.03-.12-.14.035.03.12zm32.925 4.705l-.315-.035-.055.12v.06l1.885-.16v-.115l-1.5.13zm1.725-.145v.115-.115zm7.9-1.035v.115l.205.035v-.115l-.205-.035zm-.29 0a7.86 7.86 0 0 1-1.89.285v.115h.2l.155-.06c1.4-.155 1.565-.1 1.55-.255V34.5zm-8.5-2.06l-.125-.04a2.1 2.1 0 0 0-.15.5v.05c.1 0 .185-.17.27-.5zm-1.705-.92v-.02h-.065l-.115.075.065.11c.09 0 .13-.05.12-.13zm3.705 3.83v-.115h-.06v.115zm7.685-1.735h.09c.05 0 .075-.045.07-.12l-.05-.11a1.5 1.5 0 0 0-.73.185v-.06l-.385.035c0-.115-.04-.175-.095-.17h-.2c-.235 0-.345 0-.46.1 0-.04 0-.06-.04-.06h-.225l-.13.075c0-.04 0-.06-.04-.06l-.08.07h-.385v.115l.16.04h.15a.27.27 0 0 0 .17.035l.13-.065v.05a9.54 9.54 0 0 1-1.23.235.215.215 0 0 0-.125-.05.1.1 0 0 1-.095-.105l.26-.035c.057.018.116.033.175.045.21-.105.22-.145.33-.155v-.115c-.439.08-.884.122-1.33.125h-.04v-.115c1.155-.14.77-.06 1.165-.17 0 .04 0 .06.04.06a.27.27 0 0 1 .16-.08h.08a4.23 4.23 0 0 0 1.34-.175v.05l.13-.065h.12c0-.115.17-.135.23-.14v-.125c-1.405.285-1.775.205-2.165.315v-.05a1.705 1.705 0 0 1-.5.04.245.245 0 0 0-.115.075c0-.04 0-.06-.045-.06l-1.195.195c0-.035 0-.05-.045-.045-.417.122-.846.2-1.28.23a.39.39 0 0 0-.155.065c0-.035 0-.05-.065-.045l-.5.04-.34.085c0-.035 0-.05-.065-.045-.163.047-.33.08-.5.095-.085 0 .04 0 0-.05l-.105.06h-.58c-.9.11-.8.125-.9.13h-.335a.045.045 0 0 1-.05.055c-.38-.05-.58-.11-.58-.18.05-.363.138-.55.265-.56h.065l-.055.12h.065c.12-.065.175-.125.17-.18v-.125h-.12v-.115a.42.42 0 0 1 .035-.235l.275-.445v.115h.13v-.115l-.075-.105a.5.5 0 0 1 .235-.135v-.06H52.7v-.175a5 5 0 0 0 .5-1.285l.125.05c.08 0 .115-.05.11-.135h-.12v-.05a.445.445 0 0 1 .045-.245.78.78 0 0 0 .26-.61c.035 0 .055 0 .06.055.165-.095.29-.34.38-.75.486-1.01.899-2.055 1.235-3.125 1.025-2.76 1-3.05 1.125-3.705h-.12a.42.42 0 0 1-.045.24.5.5 0 0 0-.195-.045v-.05c.005-.31.112-.611.305-.855h.055l.105.4h.12a3.65 3.65 0 0 1 .095-.5c0-.06-.05-.1-.145-.105l-.115.075v-.65h-.06a.455.455 0 0 1-.16-.255l-.665.065a.61.61 0 0 0-.075-.205c0-.06.145-.12.45-.18l.135.05.125-.075c0 .04.03.06.075.055l.125-.075c0 .04.03.06.075.055h.06v-.135h-.73l-.125.085v-.075c-3.127.257-4.902.405-5.325.445h-.66c0 .05-.04.08-.135.09l-.135-.06-.455.115a3.03 3.03 0 0 1-.54 0 .465.465 0 0 1-.255.1l1.335-.085a.61.61 0 0 1-.325.105.45.45 0 0 1-.265-.045c-.328.1-.662.18-1 .235l-.135-.05-2.18.335a.545.545 0 0 0-.295-.045 3.62 3.62 0 0 0-.58.125l-1.055.44.08.13a.585.585 0 0 0 .215-.085l.375.035-.045.35a.94.94 0 0 0-.71.59c-.5.23-.775.39-.775.5v.06h.08l.14-.075.165.195v.27c0 .083-.868 1.917-2.605 5.5-1.5 3.45-2.3 5.335-2.375 5.675-.5.145-.815.355-.905.635 0 .09.165.15.46.17v.135l-.135.225v.27c0 .14.377.247 1.13.32 0-.045 0-.075.07-.08a4.08 4.08 0 0 1-.14 1h.08c.226-.24.379-.54.44-.865h.065c.075 0 .155.08.245.26-.093.037-.427.778-1 2.225l.08.13h.08c.683-1.733 1.113-2.692 1.29-2.875.9-.08 2.455-.247 4.665-.5l.14-.085a.065.065 0 0 0 .085.065h.145l.14-.085a.065.065 0 0 0 .085.065l1.73-.2c.445-.035.65-.17.635-.4 0-.06.255-.13.785-.205a.64.64 0 0 1 .23.04c0-.04.26-.085.79-.13 0-.28.1-.43.26-.445v-.135c-.17.02-.338.058-.5.115a3.13 3.13 0 0 1-.665-.08.615.615 0 0 1-.215.085l-1.165.035-.14.075c0-.043-.028-.062-.085-.055h-.065l-.15.075c0-.04-.125-.075-.37-.105l-.15.09h-.29v-.045c1.5-.163 2.24-.367 2.22-.61a.13.13 0 0 1 .16.135l.44-.11v-.135l-3.59.1c0 .045 0 .075-.07.08l-.44-.035a.53.53 0 0 0-.28.1l-.165-.06a5 5 0 0 0-1 .165 6.365 6.365 0 0 0-1 0l-.805.07-.425-.05c0-.24.445-1.405 1.395-3.5.14-.498.406-.952.77-1.32a.54.54 0 0 1 .23.055l.575-.195.295.045a6.725 6.725 0 0 0 1.725-.425.81.81 0 0 1 .375.035l.44-.105 1.29-.09a8.65 8.65 0 0 0 1.81-.37v-.135c-.24 0-.37 0-.375-.115 0-.18-.19-.255-.53-.23v-.135l.36-.105.94-.08v-.135h-.58v-.145l.365-.035c.1 0 .14-.055.13-.15-.5 0-.735 0-.74-.075-3.41.167-5.12.198-5.13.095a.585.585 0 0 0-.215.095l-.09-.14c.903-1.92 1.433-2.887 1.59-2.9a.845.845 0 0 1-.11.36v.06h.145c.36-.855.66-1.3.915-1.32 1.07-.095-.15-.165 2.145-.5a.445.445 0 0 0 .205.055c.9-.183 2.153-.373 3.76-.57v-.135l-.855.08v-.135a.465.465 0 0 0 .255-.1v.075a.5.5 0 0 0 .195-.095.615.615 0 0 1 .34.04 4.96 4.96 0 0 1 .72-.145l.535-.05c.13-.085.19-.16.185-.23v-.06a1.69 1.69 0 0 1-.47-.03.135.135 0 0 1 .12-.15l1-.095.455-.115c0 .05.03.07.065.07a.5.5 0 0 0 .195-.095h.075c-.08.176-.148.358-.2.545h-.13a.57.57 0 0 0-.075-.24h-.065c-1.21 3.375-1.75 4.945-2.87 7.535-.205.66-.375 1.03-.525 1.11a.105.105 0 0 0 .13.105c.026.338-.055.675-.23.965-.5 1.5-.86 2.305-1.04 2.455l.05.67a.11.11 0 0 1-.11.125h-.12c0-.195-.09-.29-.215-.275h-.065a2.77 2.77 0 0 0-.36.86h.12a.405.405 0 0 0 .225-.375h.24l.14.05a.745.745 0 0 0-.155.425l.065.11-.16.375v.06a.755.755 0 0 1 .455.13.815.815 0 0 0 .37-.15h1.56l.45-.155c.372.008.744-.003 1.115-.035h.195l.105-.07v.06c.307-.035.617-.023.92.035v.06H55v.115a.395.395 0 0 0 .22-.085c.07 0 .11.035.115.115a1.64 1.64 0 0 0-.375.085l-.12-.04c-.19.05-.15.065-.28.075l-.19-.035a.045.045 0 0 1-.045.055.1.1 0 0 0 .115.105h.195l1-.09.385-.085c0 .035 0 .05.05.045l.185-.07.35-.03c.27 0 .265-.04.855-.135 0-.035 0-.05.035-.055v.05A8.6 8.6 0 0 0 58.7 35v.03c.24-.055.105-.04.17-.09 0 .04 0 .06.04.06h.17v-.125h-.42a1.795 1.795 0 0 1-.38.03l-.855.045v-.06l.5-.065h.17l.1-.07v.06c.67-.055.91.11 4-.55.17 0 .155-.155.26-.445a.29.29 0 0 1-.165-.035 4.85 4.85 0 0 1-.885.13c-.04 0-.075-.035-.09-.105v-.05h.5a1.2 1.2 0 0 0 .5-.17c0 .04-.1.065-.04.06zM39.305 34h-.22a4.13 4.13 0 0 1 .35-1h.145a3.81 3.81 0 0 1-.275 1zm.265-1.06v-.06c0-.075.04-.125.145-.15v.06c0 .09-.04.14-.145.15zm2.93 2.26v.06l-.365.035v-.06l.365-.035zm-.44-.035c0 .075-.105.16-.35.24l-.445-.035h-.145v-.135l.955-.09zM45 21.61h-.22v-.075c0-.075.035-.125.13-.15h.08l.15.06a.13.13 0 0 1-.135.15zm3.33-.65h.07v.135h-.2a.135.135 0 0 1 .12-.15zm-.83.29l-.33-.035v-.065c.282-.017.56-.067.83-.15 0 .05.05.07.135.06v.135h-.13a.45.45 0 0 1-.265-.045.57.57 0 0 1-.255.095zm.415 1.205v-.06l.535-.05v.06l-.535.05zM48.47 22v-.075h.26V22h-.26zm.06-.915h-.07l.06-.145.595-.055v.075a3.6 3.6 0 0 0-.59.12zm.305 1.285v-.135h.26c.09 0 .137.042.14.125l-.39.035zm1.58-2.15l-.335.095H50a3.425 3.425 0 0 1-.605 0c.435-.03.85-.06 1-.085zm-.36 1.5v.06l-.46.04v-.06l.46-.04zm.755.36c0-.055-.095-.095-.275-.11l-.46.13h-.355c-.08-.055-.12-.095-.125-.12h.41l.92-.15h.47v.075a2.64 2.64 0 0 0-.59.12zm4.745-1.225h.105a1.79 1.79 0 0 1 .555-.375 3.275 3.275 0 0 1-.785 1.635l-.26-.16a8.5 8.5 0 0 0 .385-1.11zm-.8 1.375h.065c-.09.17-.17.255-.235.26v-.175a.395.395 0 0 0 .18-.08zm-.5 1.235a1.75 1.75 0 0 1 .36-.86v.06c-.065.465-.17.715-.305.73v.295a.66.66 0 0 0-.16.375h-.065l-.035-.405c.075 0 .135-.075.175-.195zm-.2.67c-.02.173-.065.341-.135.5h-.065v-.175c.09-.205.165-.31.215-.31zm-3.76 10.91v-.05h.12v.175c-.065 0-.11-.035-.13-.115zm5.37.14c0-.04 0-.06-.065-.055l-.305.03v-.06h.03L56 35v.06a.63.63 0 0 0-.375.09zm-.36-.15c.03 0 0 .03 0 .035 0 .005-.035 0 0-.035zm.035-.84l-.4.035v-.08l.365-.035.315-.08c0 .035 0 .05.065.045.375-.065.34-.085.5-.1.06 0 .1.035.105.105l-.965.085zm1.4-.12a1.595 1.595 0 0 0-.395-.03V34l.36-.035V34c-.035 0 .1 0 .035.06zm.03-.065v-.05h.195v.05h-.195zm.435-.035v-.05a.34.34 0 0 0 .14-.075.14.14 0 0 1 .16.13zm.555-.07v-.06H58v.06h-.24zm.33-.03c0-.07 0-.11.085-.12l.08.105a.045.045 0 0 1 .035-.055l.06.11-.26-.035zm4.585-.54zm.085-.06c.035 0 .055-.045-.035-.06s.045.06-.045.065v.04l.05-.035-.05.04-.1.125.195-.07v-.115zm.34.265h-.035v.115h.275c0-.075-.185-.1-.245-.1z"/></svg>