<svg viewBox="0 0 64 64" xmlns="http://www.w3.org/2000/svg"><path d="M9.407 57.062L4.38.675h55.24l-5.032 56.377-22.621 6.272-22.56-6.264z" fill="#1572B6"/><path fill="#33A9DC" d="M32 58.531l18.28-5.068 4.3-48.177H32v53.245z"/><path d="M32 25.715h9.152l.631-7.082H32v-6.915h17.341l-.166 1.855-1.7 19.057H32v-6.915z" fill="#FFF"/><path fill="#EBEBEB" d="M32.041 43.675l-.03.009-7.702-2.08-.492-5.516h-6.941l.968 10.859 14.166 3.931.032-.009v-7.195z"/><path d="M40.563 32.337l-.833 9.261-7.712 2.083v7.195l14.176-3.93.104-1.168 1.203-13.44h-6.937z" fill="#FFF"/><path fill="#EBEBEB" d="M32.024 11.717v6.916H15.32l-.139-1.554-.314-3.506-.166-1.855h17.323zM32 25.715v6.916h-7.604l-.139-1.554-.315-3.506-.165-1.855H32z"/></svg>