<svg viewBox="0 0 64 64" xmlns="http://www.w3.org/2000/svg" xmlns:xlink="http://www.w3.org/1999/xlink"><defs><path id="b" d="M4703.5 537.54L0 5241.04c0 221.74 181.42 403.16 403.16 403.16h67.193l4636.3-4636.3v-67.193c0-221.74-181.42-403.16-403.16-403.16z"/><path id="d" d="M4300.3 0c-439.44 0-829.83 210.98-1075.1 537.54H403.1C181.36 537.54-.06 718.96-.06 940.7V5241c0 221.74 181.42 403.16 403.16 403.16h4300.3c221.74 0 403.16-181.42 403.16-403.16V2609.1c282.2-412.56 537.54-784.14 537.54-1265.2C5644.1 601.42 5042.73 0 4300.3 0z"/><path id="a" d="M2553.3 3090.9l2535.5 2268.6c11.6-37.48 17.856-77.248 17.856-118.4V940.8c0-41.16-6.257-80.93-17.856-118.4L2553.3 3091z"/><radialGradient id="c" fx="140.1" fy="5533.9" gradientUnits="userSpaceOnUse" cx="140.1" cy="5533.9" r="6883.6" gradientTransform="matrix(1 0 0 -1 0 6182.8)"><stop offset="0%" stop-color="#FFF" stop-opacity=".1"/><stop offset="100%" stop-color="#FFF" stop-opacity="0"/></radialGradient></defs><g transform="scale(.01134)"><path fill="#0F9D58" d="M2553.3 3090.9L4821.9 555.4c-37.48-11.6-77.248-17.856-118.4-17.856H403.2C181.45 537.544.03 718.964.03 940.704v4300.3c0 41.16 6.257 80.93 17.856 118.4l2535.5-2268.6z"/><path fill="#4285F4" d="M2553.3 3090.9L284.7 5626.4c37.48 11.6 77.248 17.856 118.4 17.856h4300.3c41.16 0 80.93-6.256 118.4-17.856L2553.2 3090.9z"/><use fill="#E1E1E1" xlink:href="#a"/><use opacity=".5" fill="#C2C2C2" xlink:href="#a"/><path fill="#F1F1F1" d="M5106.6 5241L2687.7 2822.1l-470.35 403.16 2418.9 2418.9h67.192c221.74.001 403.16-181.42 403.16-403.15z"/><use fill="#FFEB3B" xlink:href="#b"/><use opacity=".5" fill="#FFCD40" xlink:href="#b"/><path fill="rgba(255,255,255,.2)" d="M4703.5 537.54H403.2C181.46 537.54.04 718.96.04 940.7v33.596c0-221.74 181.42-403.16 403.16-403.16h4300.3c221.74 0 403.16 181.42 403.16 403.16V940.7c.001-221.74-181.42-403.16-403.15-403.16z"/><path fill="rgba(38,50,56,.1)" d="M4703.5 5610.6H403.2C181.46 5610.6.04 5429.18.04 5207.44v33.596c0 221.74 181.42 403.16 403.16 403.16h4300.3c221.74 0 403.16-181.42 403.16-403.16v-33.596c.001 221.74-181.42 403.16-403.15 403.16z"/><path fill="#EEE" d="M1142.3 1545.4v286.24h397.78c-31.58 170-180.75 293.63-397.78 293.63-241.22 0-437.42-204.26-437.42-444.8 0-240.54 196.2-444.8 437.42-444.8 108.85 0 205.6 37.628 282.88 110.2l211.66-211.66c-128.34-120.28-294.98-193.52-494.54-193.52-408.53 0-739.12 330.6-739.12 739.12s330.6 739.12 739.12 739.12c426.67 0 709.55-300.35 709.55-722.32 0-52.4-4.703-102.8-13.438-151.18h-696.12z"/><path fill="#DB4437" d="M4300.3 0c-742.48 0-1343.9 601.37-1343.9 1343.9 0 1012.6 1130.8 1540.1 1264.6 2985.4 4.03 40.315 38.3 71.896 79.287 71.896 40.987 0 75.927-31.58 79.287-71.896 133.7-1445.3 1264.6-1972.8 1264.6-2985.4C5644.176 601.42 5042.804 0 4300.374 0z"/><circle cx="4300.3" cy="1343.9" r="470.35" fill="#7B231E"/><path fill="rgba(255,255,255,.2)" d="M4300.3 33.596c735.76 0 1333.1 591.3 1343.2 1324.4 0-4.703.672-9.407.672-14.1 0-742.48-601.37-1343.9-1343.9-1343.9-742.53 0-1343.8 601.37-1343.8 1343.9 0 4.703.672 9.407.672 14.1 10.078-733.07 607.42-1324.4 1343.2-1324.4z"/><path fill="rgba(62,39,35,.2)" d="M4379.6 4295.6c-3.36 40.315-38.3 71.896-79.287 71.896-40.987 0-75.927-31.58-79.287-71.896-132.37-1438.6-1253.1-1968.1-1263.9-2971.3 0 6.72-.672 12.767-.672 19.486 0 1012.6 1130.8 1540.1 1264.6 2985.4 4.03 40.315 38.3 71.896 79.287 71.896 40.987 0 75.927-31.58 79.287-71.896 133.7-1445.3 1264.6-1972.8 1264.6-2985.4 0-6.72-.672-12.767-.672-19.486-10.75 1003.2-1130.9 1533.3-1263.9 2971.3z"/><use fill="url(#c)" xlink:href="#d"/></g></svg>