<svg viewBox="0 0 64 64" xmlns="http://www.w3.org/2000/svg"><path d="M9.518 56.938L4.516.83h54.968l-5.008 56.1-22.51 6.24z" fill="#E44D26"/><path fill="#F16529" d="M32 58.4l18.189-5.043 4.28-47.939H32z"/><path d="M32 26.227h-9.106l-.629-7.047H32V12.3H14.744l.165 1.845L16.6 33.11H32zM32 44.1l-.03.009-7.664-2.07-.49-5.488h-6.908l.964 10.805 14.097 3.913.031-.009z" fill="#EBEBEB"/><path fill="#FFF" d="M31.976 26.227v6.882h8.473l-.798 8.925-7.675 2.071v7.16l14.108-3.91.103-1.163 1.617-18.116.167-1.848h-1.854zm0-13.928v6.881h16.622l.138-1.546.314-3.489.165-1.846z"/></svg>