<svg viewBox="0 0 64 64" xmlns="http://www.w3.org/2000/svg"><g fill="none"><path d="M41.364 17.709l-3.835 7.743a8.286 8.286 0 0 1 2.501 4.446h2.89a8.307 8.307 0 0 1 2.315-4.28l-3.871-7.91z"/><path d="M34.306 23.58l7.058-14.262 7.039 14.356c.278-.093.556-.167.834-.241l6.687-19.728H26.786l6.668 19.672c.278.056.574.13.852.204zM31.88 36.197a4.672 4.672 0 0 0 3.908-7.225 4.586 4.586 0 0 0-.518-.666l-.019-.019a3.456 3.456 0 0 0-.63-.537l-.018-.019c-.056-.037-.13-.092-.204-.13-.019 0-.019-.018-.037-.018-.074-.037-.148-.093-.222-.13h-.019c-.074-.037-.167-.092-.24-.13h-.02a1.133 1.133 0 0 0-.222-.092c-.018 0-.037-.018-.055-.018-.056-.019-.13-.056-.185-.074-.019 0-.037-.019-.075-.019-.074-.019-.148-.056-.222-.074h-.018c-.093-.019-.167-.037-.26-.056-.018 0-.037 0-.074-.018-.074-.019-.13-.019-.204-.037-.037 0-.055 0-.092-.019-.056 0-.13-.018-.185-.018h-.723c-.074 0-.13.018-.204.018h-.074c-.074.019-.148.019-.222.037h-.056c-.092.019-.166.037-.259.056a4.687 4.687 0 0 0-3.556 4.538c.037 2.538 2.13 4.65 4.705 4.65zm19.635-9.336h-.037c-.074 0-.13-.019-.204-.019h-.24c-.093 0-.186 0-.297.019h-.093c-.074 0-.148.018-.222.018-.018 0-.056 0-.074.019l-.278.055h-.018c-.093.019-.167.037-.26.056-.018 0-.055.018-.074.018-.074.019-.148.037-.222.074-.019 0-.037.019-.056.019a3.63 3.63 0 0 0-.259.111c-.093.037-.167.074-.26.111-.018 0-.036.019-.055.019a1.348 1.348 0 0 0-.222.13s-.019 0-.019.018a2.797 2.797 0 0 0-.481.333l-.019.019c-.24.185-.444.389-.648.611-.204.223-.37.482-.519.741a4.672 4.672 0 0 0 4.057 6.984 4.672 4.672 0 0 0 4.668-4.668c0-2.26-1.63-4.168-3.76-4.594a2.298 2.298 0 0 0-.408-.074zm-38.993 9.336a4.672 4.672 0 0 0 4.668-4.668 4.672 4.672 0 0 0-4.668-4.668 4.672 4.672 0 0 0-4.668 4.668 4.672 4.672 0 0 0 4.668 4.668z"/><path d="M51.052 39.808c-3.853 0-7.095-2.65-8.021-6.206h-3.112c-.926 3.557-4.168 6.206-8.02 6.206-.445 0-.871-.037-1.279-.093a24.882 24.882 0 0 1-3.853 4.576c-2.649 2.5-5.65 4.353-8.891 5.52l-.76.278-.704-.37c-3.89-2.001-5.89-6.058-5.187-9.985a7.19 7.19 0 0 1-1.278-.334c-.074.13-.13.278-.203.426-1.186 2.446-2.427 4.965-2.872 7.67-.481 2.889-.685 8.168 3.39 10.984 1.779 1.223 3.65 1.834 5.743 1.834 4.02 0 8.354-2.149 12.948-4.427 3.593-1.779 7.298-3.631 11.151-4.576 1.464-.352 2.946-.574 4.372-.778 2.612-.37 5.094-.74 7.113-1.908 2.149-1.24 3.612-3.316 4.02-5.687a8.31 8.31 0 0 0-.37-4.26 8.368 8.368 0 0 1-4.187 1.13z"/></g><path fill="#99425B" d="M59.332 31.51c0-3.854-2.649-7.095-6.205-8.022L61.092 0H21.617l7.984 23.562c-3.445 1-5.983 4.187-5.983 7.966 0 2.778 1.39 5.242 3.501 6.76a22.07 22.07 0 0 1-2.89 3.317c-2.056 1.926-4.334 3.408-6.798 4.39-2.223-1.5-3.186-4.15-2.315-6.52a8.3 8.3 0 0 0 5.853-7.929c0-4.575-3.723-8.28-8.28-8.28-4.576 0-8.299 3.723-8.299 8.299 0 2.26.926 4.334 2.408 5.816-.13.26-.26.519-.389.797-1.24 2.556-2.649 5.446-3.186 8.687C2.15 53.35 3.91 58.554 8.151 61.5c2.39 1.649 5.02 2.483 7.854 2.483 4.871 0 9.817-2.446 14.596-4.817 3.409-1.685 6.928-3.445 10.392-4.297 1.279-.315 2.612-.5 4.02-.704 2.853-.408 5.798-.834 8.447-2.371 3.093-1.797 5.205-4.798 5.816-8.243.464-2.65 0-5.317-1.185-7.65a8.252 8.252 0 0 0 1.241-4.39zm-3.612 0a4.672 4.672 0 0 1-4.668 4.667 4.672 4.672 0 0 1-4.057-6.983 5.17 5.17 0 0 1 .52-.741c.184-.223.406-.426.647-.612l.02-.018c.147-.111.314-.222.48-.334 0 0 .02 0 .02-.018.073-.037.147-.093.221-.13.02 0 .037-.018.056-.018a3.63 3.63 0 0 1 .26-.111 3.63 3.63 0 0 0 .26-.112c.017 0 .035-.018.054-.018.074-.019.148-.056.222-.074.02 0 .056-.019.074-.019.093-.018.167-.037.26-.055h.018l.278-.056c.02 0 .056 0 .074-.018.074 0 .148-.019.222-.019h.093c.093 0 .185-.018.296-.018h.241c.074 0 .13 0 .204.018h.037c.148.019.296.037.445.074a4.709 4.709 0 0 1 3.723 4.594zM26.786 3.704h29.138l-6.687 19.728a7.057 7.057 0 0 0-.834.24l-7.04-14.355-7.057 14.263c-.278-.093-.574-.148-.87-.204l-6.65-19.672zM40.03 29.898a8.22 8.22 0 0 0-2.5-4.446l3.834-7.743 3.871 7.91a8.368 8.368 0 0 0-2.315 4.279h-2.89zm-9.28-2.927c.092-.019.166-.037.259-.056h.056c.074-.018.148-.018.222-.037h.074c.074 0 .13-.018.204-.018h.722c.074 0 .13.018.185.018.037 0 .056 0 .093.019.074.018.13.018.204.037a.14.14 0 0 1 .074.018c.092.019.185.037.26.056h.018c.074.018.148.037.222.074.019 0 .037.018.074.018.056.019.13.038.185.075.019 0 .037.018.056.018.074.037.148.056.222.093h.019a.998.998 0 0 1 .24.13h.02c.073.036.147.092.221.129.019 0 .019.019.037.019.074.037.13.092.204.13l.019.018c.222.166.426.352.63.537l.018.018c.185.204.37.427.519.667a4.672 4.672 0 0 1-3.909 7.224 4.672 4.672 0 0 1-4.668-4.667c-.018-2.168 1.482-4.002 3.52-4.52zm-18.228-.13a4.672 4.672 0 0 1 4.668 4.668 4.672 4.672 0 0 1-4.668 4.668 4.672 4.672 0 0 1-4.668-4.668 4.672 4.672 0 0 1 4.668-4.668zm43.087 16.06c-.408 2.371-1.871 4.446-4.02 5.687-2.019 1.167-4.501 1.538-7.113 1.908-1.426.204-2.927.426-4.372.778-3.853.945-7.558 2.797-11.151 4.576-4.594 2.278-8.929 4.427-12.948 4.427-2.094 0-3.964-.593-5.743-1.834-4.075-2.816-3.871-8.095-3.39-10.985.445-2.704 1.686-5.242 2.872-7.669.074-.148.13-.278.203-.426.408.148.834.26 1.278.334-.703 3.927 1.297 7.984 5.187 9.984l.704.37.76-.277c3.241-1.149 6.242-3.02 8.891-5.52a24.882 24.882 0 0 0 3.853-4.576 7.43 7.43 0 0 0 1.278.093c3.853 0 7.095-2.65 8.021-6.206h3.112a8.288 8.288 0 0 0 8.02 6.206c1.474 0 2.92-.397 4.187-1.149.482 1.39.63 2.834.37 4.28z"/></svg>