<svg viewBox="0 0 64 64" xmlns="http://www.w3.org/2000/svg"><path d="M.704.704h62.592v62.593H.704z" fill="#F0DB4F"/><path fill="#323330" d="M58.173 48.368c-.458-2.856-2.32-5.254-7.836-7.49-1.916-.881-4.052-1.511-4.688-2.963-.226-.845-.256-1.321-.113-1.833.41-1.66 2.392-2.178 3.962-1.702 1.012.34 1.97 1.119 2.547 2.362 2.701-1.748 2.696-1.737 4.582-2.939-.691-1.07-1.06-1.565-1.512-2.022-1.624-1.815-3.838-2.75-7.378-2.678l-1.844.238c-1.767.447-3.45 1.374-4.438 2.618-2.963 3.362-2.118 9.246 1.488 11.667 3.551 2.666 8.77 3.273 9.436 5.766.648 3.052-2.243 4.04-5.117 3.689-2.118-.44-3.296-1.517-4.57-3.475-2.343 1.357-2.343 1.357-4.753 2.743.571 1.25 1.172 1.815 2.13 2.897 4.534 4.6 15.88 4.373 17.915-2.588.082-.239.63-1.833.19-4.29zM34.731 29.472h-5.855l-.024 15.136c0 3.219.167 6.17-.357 7.074-.856 1.779-3.076 1.558-4.087 1.214-1.03-.506-1.553-1.226-2.16-2.243-.166-.292-.291-.518-.333-.535l-4.76 2.915c.791 1.624 1.957 3.034 3.451 3.95 2.231 1.339 5.23 1.75 8.365 1.03 2.041-.595 3.802-1.826 4.724-3.701 1.333-2.457 1.047-5.432 1.035-8.722.03-5.367.001-10.734.001-16.119z"/></svg>