<svg viewBox="0 0 64 64" xmlns="http://www.w3.org/2000/svg"><g fill="#439934" fill-rule="evenodd"><path d="M44.019 21.406c.802 2.321 1.38 4.691 1.57 7.148.237 3.047.129 6.074-.514 9.071-.018.083-.054.16-.082.24-.202 0-.407-.025-.604.006-1.665.262-3.328.532-4.99.802-1.72.279-3.441.546-5.157.844-.608.104-1.36-.021-1.606.82-.007.023-.077.027-.117.04l.083-5.026-.085-12.125.801-.138c1.31-.214 2.62-.432 3.931-.64 1.565-.249 3.13-.49 4.696-.733.69-.107 1.382-.206 2.074-.309z"/><path fill="#45A538" d="M30.864 55.027c-.845-.727-1.719-1.421-2.529-2.185-4.359-4.111-7.546-8.95-9.117-14.783a23.983 23.983 0 0 1-.813-4.896c-.065-1.161-.159-2.333-.077-3.487.218-3.073.662-6.115 1.563-9.074l.05-.069c.087.116.213.22.258.351.88 2.59 1.752 5.182 2.621 7.775 2.729 8.15 5.454 16.302 8.188 24.45.053.16.192.29.291.433l-.435 1.485z"/><path fill="#46A037" d="M44.019 21.406c-.692.103-1.384.202-2.075.308-1.565.242-3.131.484-4.696.733-1.31.208-2.62.426-3.93.64l-.801.138-.007-.523c-.026-.43-.071-.859-.076-1.288-.035-2.739-.056-5.478-.09-8.217a629.539 629.539 0 0 0-.088-5.144c-.021-1.065-.044-2.13-.092-3.194-.027-.57-.119-1.14-.156-1.71-.021-.33.008-.66.014-.99.409.791.808 1.59 1.228 2.374.664 1.242 1.721 2.157 2.672 3.155 3.762 3.946 6.432 8.534 8.097 13.717z"/><path fill="#409433" d="M32.518 40.377c.04-.014.111-.018.117-.04.246-.842.999-.716 1.607-.821 1.716-.297 3.437-.565 5.156-.844 1.663-.269 3.326-.54 4.99-.801.198-.032.403-.006.605-.007-.312 1.11-.557 2.245-.951 3.324-.448 1.224-.99 2.42-1.565 3.591A24.571 24.571 0 0 1 39.3 49.66c-.96 1.155-2.029 2.221-3.101 3.275-.592.582-1.291 1.057-1.941 1.58l-.169-.115-.606-.519-.628-1.376a20.701 20.701 0 0 1-.697-4.92l.011-.28.086-1.213c.028-.414.066-.827.083-1.242.065-1.491.121-2.982.18-4.473z"/><path fill="#4FAA41" d="M32.518 40.377c-.059 1.49-.115 2.981-.178 4.473-.018.415-.056.829-.085 1.242l-.382.145c-.85-2.501-1.7-4.976-2.531-7.457-1.375-4.104-2.733-8.215-4.106-12.32a2451.26 2451.26 0 0 0-3.34-9.907c-.054-.155-.205-.276-.31-.413l2.448-4.5c.084.145.195.282.248.44 1.133 3.35 2.263 6.702 3.384 10.058 1.458 4.365 2.907 8.733 4.364 13.1.058.173.154.334.245.53l.336-.39-.084 5.026z"/><path fill="#4AA73C" d="M21.578 16.113c.105.137.255.258.308.413 1.124 3.31 2.241 6.62 3.35 9.934 1.373 4.106 2.732 8.216 4.106 12.321.832 2.48 1.682 4.955 2.532 7.457l.382-.145-.086 1.213-.077.28c-.133 1.327-.245 2.658-.407 3.983-.082.664-.255 1.316-.386 1.974-.099-.143-.238-.274-.292-.433-2.733-8.149-5.459-16.3-8.188-24.45-.868-2.594-1.741-5.186-2.62-7.776-.045-.131-.17-.234-.259-.35l1.636-4.42z"/><path fill="#57AE47" d="M32.601 35.351l-.335.39c-.091-.196-.188-.357-.245-.531-1.457-4.365-2.907-8.734-4.365-13.099-1.122-3.355-2.25-6.708-3.384-10.059-.052-.157-.163-.294-.248-.44l3.028-3.982c.095.128.231.241.281.385.84 2.46 1.673 4.923 2.501 7.388.774 2.303 1.536 4.608 2.318 6.907.053.154.235.263.357.393l.006.523c.03 4.04.058 8.083.086 12.125z"/><path fill="#60B24F" d="M32.51 22.702c-.121-.13-.304-.239-.356-.393-.783-2.299-1.545-4.604-2.319-6.907-.828-2.464-1.66-4.927-2.501-7.388-.05-.144-.185-.257-.281-.385.985-.964 1.938-1.962 2.962-2.882.911-.817 1.643-1.693 1.676-2.984.002-.053.03-.107.073-.257l.26.653c-.007.33-.037.661-.015.99.037.571.13 1.14.155 1.711.049 1.063.072 2.129.093 3.194.035 1.714.066 3.428.088 5.142.033 2.74.055 5.478.09 8.217.004.431.049.86.076 1.289z"/><path fill="#A9AA88" d="M31.299 53.542c.132-.657.304-1.31.386-1.973.163-1.325.274-2.656.407-3.984l.033-.005.033.005c.037 1.667.265 3.308.697 4.92-.088.115-.212.219-.259.35-.363 1.025-.706 2.058-1.071 3.083-.05.14-.19.249-.287.372l-.374-1.283.435-1.485z"/><path fill="#B6B598" d="M31.238 56.31c.098-.123.237-.232.287-.372.365-1.025.709-2.057 1.071-3.083.047-.13.171-.234.26-.35l.627 1.377c-.124.176-.295.335-.364.53l-1.202 3.53c-.05.142-.218.242-.332.361l-.347-1.992z"/><path fill="#C2C1A7" d="M31.585 58.303c.114-.12.282-.22.332-.361l1.202-3.53c.069-.195.24-.354.364-.53l.608.518c-.294.29-.457.625-.359 1.049l-.184.604c-.085.103-.206.193-.248.312-.419 1.201-.82 2.409-1.242 3.61-.053.153-.202.272-.307.406-.054-.693-.11-1.385-.166-2.079z"/><path fill="#CECDB7" d="M31.752 60.382c.104-.135.253-.254.307-.406.422-1.201.823-2.41 1.242-3.611.042-.118.163-.209.247-.312l-.255 2.772c-.067.079-.166.147-.198.239-.288.807-.559 1.62-.847 2.427-.06.166-.174.313-.263.469-.079-.104-.22-.204-.227-.312-.025-.42-.008-.844-.006-1.266z"/><path fill="#DBDAC7" d="M31.985 61.96c.089-.157.203-.304.262-.47.289-.806.56-1.619.847-2.427.033-.091.132-.159.199-.238l.006 1.82-.609 1.562-.706-.248z"/><path fill="#EBE9DC" d="M32.69 62.208l.609-1.562.126 1.848-.735-.286z"/><path fill="#CECDB7" d="M33.732 55.449c-.098-.423.065-.759.358-1.048l.169.114-.527.934z"/><path fill="#4FAA41" d="M32.158 47.586l-.033-.005-.033.004.077-.279-.011.28z"/></g></svg>