<svg viewBox="0 0 64 64" xmlns="http://www.w3.org/2000/svg"><path d="M58.474 48.904c-3.432-.094-6.052.225-8.293 1.17-.636.269-1.652.276-1.756 1.073.35.367.405.915.682 1.366.535.865 1.438 2.026 2.244 2.634.881.665 1.789 1.375 2.733 1.951 1.679 1.024 3.553 1.609 5.17 2.634.953.605 1.9 1.367 2.829 2.049.46.337.768.861 1.366 1.073v-.097c-.314-.4-.395-.949-.683-1.367l-1.268-1.268c-1.24-1.646-2.815-3.092-4.489-4.293-1.334-.958-4.32-2.252-4.877-3.804l-.098-.098c.947-.106 2.054-.448 2.928-.683 1.466-.393 2.777-.291 4.292-.682l2.049-.586v-.39c-.766-.785-1.312-1.825-2.146-2.537-2.185-1.86-4.57-3.718-7.024-5.268-1.363-.859-3.045-1.418-4.489-2.146-.485-.246-1.338-.373-1.658-.781-.759-.966-1.171-2.191-1.756-3.317-1.224-2.358-2.427-4.934-3.512-7.415-.74-1.692-1.224-3.36-2.147-4.878-4.43-7.284-9.197-11.679-16.584-16-1.572-.919-3.464-1.282-5.464-1.757l-3.22-.195c-.655-.273-1.336-1.075-1.95-1.464C8.905 2.282 2.629-1.08.817 3.341c-1.145 2.79 1.71 5.512 2.73 6.927.718.991 1.635 2.103 2.147 3.219.337.733.395 1.469.684 2.244.708 1.911 1.326 3.99 2.243 5.756.464.894.975 1.835 1.561 2.634.359.49.976.706 1.073 1.463-.602.843-.637 2.152-.975 3.22-1.525 4.808-.95 10.784 1.268 14.342.68 1.093 2.284 3.435 4.488 2.536 1.928-.785 1.497-3.219 2.049-5.366.124-.486.048-.844.292-1.17v.097l1.757 3.512c1.3 2.094 3.606 4.281 5.56 5.757 1.014.766 1.812 2.089 3.123 2.537v-.098h-.098c-.254-.396-.651-.56-.976-.878-.763-.748-1.612-1.679-2.243-2.536-1.778-2.414-3.349-5.055-4.78-7.805-.684-1.313-1.279-2.761-1.855-4.098-.222-.515-.219-1.294-.682-1.56-.631.978-1.561 1.77-2.049 2.926-.78 1.848-.881 4.102-1.17 6.44-.172.06-.096.018-.196.096-1.359-.327-1.836-1.726-2.341-2.926-1.277-3.035-1.515-7.921-.391-11.415.291-.904 1.605-3.75 1.073-4.586-.254-.833-1.092-1.315-1.56-1.951-.581-.787-1.16-1.823-1.562-2.732-1.045-2.365-1.533-5.022-2.634-7.414-.526-1.144-1.416-2.301-2.146-3.317-.809-1.127-1.715-1.956-2.342-3.318-.223-.484-.525-1.259-.195-1.756.105-.336.254-.476.585-.585.566-.437 2.142.145 2.731.39 1.565.65 2.87 1.268 4.196 2.146.636.422 1.28 1.238 2.049 1.464h.878c1.373.315 2.912.097 4.195.487 2.268.69 4.3 1.762 6.146 2.927 5.623 3.551 10.221 8.605 13.366 14.635.506.971.725 1.897 1.17 2.927.9 2.076 2.032 4.213 2.927 6.244.893 2.026 1.763 4.07 3.025 5.756.663.887 3.225 1.362 4.39 1.855.816.344 2.154.704 2.927 1.17 1.476.89 2.908 1.951 4.293 2.927.692.488 2.82 1.558 2.926 2.44zm-43.61-37.171c-.715-.013-1.221.078-1.756.195v.097h.098c.341.701.944 1.153 1.365 1.757l.976 2.048.097-.096c.605-.427.881-1.107.877-2.147-.242-.255-.277-.574-.487-.878-.278-.405-.818-.636-1.17-.976z" fill="#00618A"/></svg>