<svg viewBox="0 0 64 64" xmlns="http://www.w3.org/2000/svg"><path d="M56.386 15.167L34.337 2.364c-1.39-.792-3.201-.792-4.603 0L7.452 15.168C6.016 15.993 5 17.544 5 19.204v25.57c0 1.66 1.042 3.212 2.477 4.042l5.888 3.344c2.814 1.386 3.808 1.386 5.089 1.386 4.166 0 6.546-2.52 6.546-6.914V21.387c0-.356-.185-.887-.535-.887h-2.812c-.356 0-1.153.53-1.153.887v25.245c0 1.948-1.762 3.886-5.055 2.24l-6.083-3.507a.69.69 0 0 1-.362-.59V19.204c0-.241.278-.483.491-.607l22.212-12.78a.778.778 0 0 1 .72 0l21.94 12.777c.21.127.137.361.137.61v25.57c0 .245.091.482-.116.6L32.34 58.16a.626.626 0 0 1-.631 0l-5.653-3.374c-.171-.099-.373-.134-.537-.043-1.573.892-1.863 1.01-3.338 1.522-.363.126-.899.346.205.964l7.399 4.377a4.653 4.653 0 0 0 4.657 0l21.942-12.791c1.435-.836 2.115-2.382 2.115-4.041v-25.57c0-1.66-.68-3.207-2.114-4.037zM38.954 40.722c-5.863 0-7.154-1.617-7.585-4.533-.05-.314-.317-.689-.636-.689h-2.866c-.354 0-.639.43-.639.783 0 3.733 2.03 8.256 11.726 8.256 7.02 0 11.045-2.728 11.045-7.555 0-4.786-3.234-6.042-10.042-6.943-6.88-.909-7.58-1.369-7.58-2.98 0-1.33.593-3.102 5.688-3.102 4.552 0 6.23.977 6.92 4.045.064.29.322.498.62.496h2.877a.658.658 0 0 0 .47-.198.647.647 0 0 0 .168-.49c-.446-5.284-3.956-7.746-11.056-7.746-6.316 0-10.083 2.667-10.083 7.137 0 4.85 3.748 6.19 9.811 6.789 7.253.711 7.816 1.771 7.816 3.197 0 2.478-1.989 3.533-6.654 3.533z" fill="#83CD29"/></svg>