<svg viewBox="0 0 256 256" xmlns="http://www.w3.org/2000/svg"><rect width="24.381" height="12.19" x="182.857" y="48.762" rx="2.761" ry="0" fill="#56B3B4"/><rect width="73.143" height="12.19" rx="2.761" ry="0" y="243.81" fill="#EA5E5E"/><rect width="48.762" height="12.19" x="146.286" y="146.286" rx="2.761" ry="0" fill="#BF85BF"/><rect width="60.952" height="12.19" x="73.143" y="146.286" rx="2.761" ry="0" fill="#EA5E5E"/><rect width="60.952" height="12.19" rx="2.761" ry="0" y="146.286" fill="#56B3B4"/><rect width="73.143" height="12.19" rx="2.761" ry="0" y="195.048" fill="#BF85BF"/><rect width="73.143" height="12.19" rx="2.761" ry="0" y="97.524" fill="#BF85BF"/><rect width="134.095" height="12.19" x="60.952" y="24.381" rx="2.761" ry="0" fill="#F7BA3E"/><rect width="48.762" height="12.19" rx="2.761" ry="0" y="24.381" fill="#EA5E5E"/><rect width="24.381" height="12.19" x="48.762" y="219.429" rx="2.761" ry="0" fill="#F7BA3E"/><g fill="#56B3B4"><rect width="24.381" height="12.19" x="48.762" y="73.143" rx="2.761" ry="0"/><rect width="36.571" height="12.19" rx="2.761" ry="0" y="219.429"/></g><rect width="36.571" height="12.19" rx="2.761" ry="0" y="73.143" fill="#F7BA3E"/><g fill="#D0D4D8"><rect width="24.381" height="12.19" x="158.476" y="219.429" opacity=".5" rx="2.761" ry="0"/><rect width="60.952" height="12.19" x="85.333" y="219.429" opacity=".5" rx="2.761" ry="0"/><rect width="60.952" height="12.19" x="195.048" y="219.429" opacity=".5" rx="2.761" ry="0"/></g><rect width="109.714" height="12.19" x="97.524" y="121.905" rx="2.761" ry="0" fill="#56B3B4"/><rect width="48.762" height="12.19" x="36.571" y="121.905" rx="2.761" ry="0" fill="#F7BA3E"/><rect width="24.381" height="12.19" rx="2.761" ry="0" y="121.905" fill="#EA5E5E"/><rect width="60.952" height="12.19" x="109.714" y="48.762" rx="2.761" ry="0" fill="#BF85BF"/><rect width="97.524" height="12.19" rx="2.761" ry="0" y="48.762" fill="#56B3B4"/><rect width="121.905" height="12.19" x="36.571" y="170.667" rx="2.761" ry="0" fill="#F7BA3E"/><rect width="24.381" height="12.19" rx="2.761" ry="0" y="170.667" fill="#BF85BF"/><rect width="73.143" height="12.19" x="146.286" y="73.143" rx="2.761" ry="0" fill="#EA5E5E"/><rect width="73.143" height="12.19" x="146.286" y="97.524" rx="2.761" ry="0" fill="#F7BA3E"/><rect width="158.476" height="12.19" rx="2.761" ry="0" fill="#56B3B4"/><rect width="85.333" height="12.19" x="170.667" opacity=".5" rx="2.761" ry="0" fill="#D0D4D8"/><g fill="#D0D4D8"><rect width="36.571" height="12.19" x="170.667" y="170.667" opacity=".5" rx="2.761" ry="0"/><rect width="36.571" height="12.19" x="219.429" y="170.667" opacity=".5" rx="2.761" ry="0"/><rect width="48.762" height="12.19" x="207.238" y="146.286" opacity=".5" rx="2.761" ry="0"/><rect width="48.762" height="12.19" x="207.238" y="24.381" opacity=".5" rx="2.761" ry="0"/><rect width="36.571" height="12.19" x="219.429" y="121.905" opacity=".5" rx="2.761" ry="0"/><rect width="36.571" height="12.19" x="219.429" y="48.762" opacity=".5" rx="2.761" ry="0"/><rect width="24.381" height="12.19" x="231.619" y="73.143" opacity=".5" rx="2.761" ry="0"/><rect width="24.381" height="12.19" x="231.619" y="97.524" opacity=".5" rx="2.761" ry="0"/><rect width="121.905" height="12.19" x="134.095" y="195.048" opacity=".5" rx="2.761" ry="0"/><rect width="36.571" height="12.19" x="85.333" y="195.048" opacity=".5" rx="2.761" ry="0"/><rect width="73.143" height="12.19" x="182.857" y="243.81" opacity=".5" rx="2.761" ry="0"/><rect width="85.333" height="12.19" x="85.333" y="243.81" opacity=".5" rx="2.761" ry="0"/><rect width="48.762" height="12.19" x="85.333" y="73.143" opacity=".5" rx="2.761" ry="0"/><rect width="48.762" height="12.19" x="85.333" y="97.524" opacity=".5" rx="2.761" ry="0"/></g></svg>