<svg viewBox="0 0 64 64" xmlns="http://www.w3.org/2000/svg"><path d="M0 0h64v64H0z" fill="none"/><path fill="#764ABC" d="M44.345 44.055c-4.5 9.2-12.38 15.39-22.805 17.425-1.598.392-3.24.583-4.885.57-6 0-11.5-2.5-14.17-6.595C-1.1 50-2.32 38.435 9.5 29.88c.24 1.305.73 3.095 1.055 4.155A19.12 19.12 0 0 0 5 40.55c-2.2 4.32-1.955 8.635.65 12.625 1.8 2.69 4.65 4.325 8.315 4.825a22 22 0 0 0 13.275-2.5c6.355-3.34 10.59-7.33 13.36-12.785a4.66 4.66 0 0 1-1.305-3A4.56 4.56 0 0 1 43.685 35h.17a4.575 4.575 0 0 1 .5 9.125zm14.335-10.1c6.105 6.92 6.27 15.065 3.91 19.79-2.2 4.315-8 8.635-15.8 8.635a25.24 25.24 0 0 1-10.5-2.525c1.145-.815 2.77-2.12 3.665-2.935a20.77 20.77 0 0 0 8 1.71c5.05 0 8.875-2.36 11.155-6.675 1.465-2.85 1.55-6.19.165-9.61A21.805 21.805 0 0 0 50.64 31.92a31 31 0 0 0-17.37-5.295h-1.465a4.605 4.605 0 0 1-4 2.77h-.155a4.565 4.565 0 0 1-.15-9.125h.165a4.5 4.5 0 0 1 4 2.445h1.305c10.4 0 19.53 3.99 25.71 11.24zm-41.375 11.5a3.655 3.655 0 0 1 .57-2.365c-4.56-7.9-7-17.915-3.255-28.34 2.685-7.835 9.445-13.13 16.775-13.13 7.82 0 15.965 6.845 16.94 20.035-1.22-.405-3-1-4.07-1.22C44 16.12 40.355 5.37 31.72 5.53c-3.095.085-7.655 1.55-10 4.56a21.845 21.845 0 0 0-4.82 12.625 29.805 29.805 0 0 0 4.235 18.08c.182-.067.376-.094.57-.08h.16a4.56 4.56 0 1 1 .165 9.12h-.165a4.58 4.58 0 0 1-4.56-4.395z"/></svg>