<svg viewBox="0 0 64 64" xmlns="http://www.w3.org/2000/svg" xmlns:xlink="http://www.w3.org/1999/xlink"><defs><linearGradient id="a" x1=".268" x2=".676" y1=".482" y2=".553"><stop offset="0%" stop-color="#FF6533"/><stop offset="15.7%" stop-color="#FF5633"/><stop offset="43.4%" stop-color="#FF4333"/><stop offset="71.4%" stop-color="#FF3733"/><stop offset="100%" stop-color="#F33"/></linearGradient><linearGradient id="c" x1=".205" x2=".935" y1=".381" y2=".804"><stop offset="0%" stop-color="#BF3338"/><stop offset="100%" stop-color="#F33"/></linearGradient><linearGradient id="d" x1=".323" x2=".456" y1=".395" y2=".489" xlink:href="#a"/><linearGradient id="e" x1=".516" x2=".485" y1=".783" y2=".417" xlink:href="#a"/><linearGradient id="f" x1=".402" x2=".54" y1=".472" y2=".545"><stop offset="0%" stop-color="#FBB040"/><stop offset="100%" stop-color="#FB8840"/></linearGradient><linearGradient id="g" x1=".552" x2=".409" y1=".059" y2="1.28"><stop offset="0%" stop-color="#FFF"/><stop offset="100%" stop-color="#FFF" stop-opacity="0"/></linearGradient><path id="b" d="M256 110.133c0-19.683-5.155-38.136-14.235-54.13-24.077-24.779-76.449-30.52-89.454-.116-13.356 31.165 22.437 65.845 38.078 63.092 19.918-3.515-3.515-49.208-3.515-49.208 30.462 57.41 23.433 39.835-31.634 92.558-55.066 52.723-111.304 163.969-119.506 168.655-.351.234-.703.41-1.113.586h215.99c3.807 0 6.267-4.042 4.569-7.44l-56.473-111.773c-1.23-2.402-.351-5.39 1.992-6.737 33.04-18.98 55.3-54.598 55.3-95.487z"/></defs><g transform="translate(7.546) scale(.19104)"><use fill="url(#a)" xlink:href="#b"/><use fill="url(#c)" xlink:href="#b"/><path fill="url(#d)" d="M35.735 330.984c8.201-4.686 64.439-115.991 119.506-168.714 55.066-52.723 62.096-35.149 31.633-92.558 0 0-116.576 163.442-158.754 244.284"/><path fill="url(#e)" d="M52.137 184.531C130.87 39.777 141.181 25.19 182.187 25.19c21.558 0 43.292 9.724 57.351 27.006C220.382 21.324 186.464.644 147.624.059H13.884a5.1 5.1 0 0 0-5.097 5.096v269.591c7.967-20.562 21.499-49.97 43.35-90.215z"/><path fill="url(#f)" d="M155.24 162.27C100.174 214.993 43.936 326.297 35.734 330.984c-8.201 4.687-21.968 5.272-29.29-2.93-7.792-8.728-19.918-22.846 45.693-143.523C130.87 39.777 141.18 25.19 182.187 25.19c21.558 0 43.291 9.724 57.35 27.006.762 1.23 1.524 2.519 2.285 3.808-24.076-24.78-76.448-30.521-89.453-.118-13.357 31.166 22.437 65.846 38.078 63.092 19.917-3.514-3.515-49.208-3.515-49.208 30.404 57.351 23.374 39.777-31.693 92.5z"/><path opacity=".3" fill="url(#g)" d="M58.581 190.975c78.733-144.754 89.044-159.341 130.05-159.341 17.75 0 35.618 6.62 49.208 18.57-14.06-16.051-34.914-25.014-55.652-25.014-41.007 0-51.317 14.587-130.05 159.341-65.61 120.677-53.484 134.795-45.693 143.524 1.113 1.23 2.402 2.285 3.749 3.163-6.854-9.958-9.9-33.098 48.388-140.243z"/></g></svg>