<svg viewBox="0 0 64 64" xmlns="http://www.w3.org/2000/svg"><path d="M.61 28.078c0 .351.103.584.161.809.378 1.466 1.19 2.725 2.155 3.873 1.372 1.636 3.054 2.953 4.777 4.191 1.494 1.074 3.018 2.124 4.518 3.19.258.183.501.394.78.618-.24.13-.44.245-.648.35-1.98 1.004-3.884 2.13-5.64 3.493-1.058.823-2.08 1.696-2.803 2.838-1.163 1.836-1.574 3.792-.708 5.88.253.61.64 1.137 1.184 1.526.176.127.374.252.581.3.529.125 1.068.206 1.603.305l1.517-.001c1.677-.15 3.204-.724 4.583-1.676 2.156-1.488 3.608-3.483 4.233-6.044.454-1.86.472-3.724-.063-5.576a5.848 5.848 0 0 0-.177-.507c-.065-.167-.141-.329-.231-.536l3.438-1.977.051.044c-.062.204-.129.408-.185.615-.409 1.492-.68 3.01-.583 4.558.104 1.65.565 3.195 1.531 4.573.781 1.115 2.642 1.157 3.472.038.294-.398.58-.813.794-1.257.561-1.157 1.08-2.335 1.615-3.505l.094-.214c-.039.554-.084 1.04-.104 1.528-.032.76.012 1.516.272 2.24.223.619.601 1.081 1.31 1.163.485.055.872-.167 1.228-.449a5.192 5.192 0 0 0 1.346-1.599c.95-1.746 1.927-3.48 2.788-5.27.932-1.935 1.747-3.927 2.612-5.896l.143-.349c.205.804.347 1.59.61 2.336.305.864.682 1.708 1.093 2.529.195.387.172.639-.097.964-1.128 1.36-2.237 2.736-3.346 4.111-.246.304-.49.613-.695.944a1.85 1.85 0 0 0-.24.682.869.869 0 0 0 .692.986c.439.094.906.129 1.354.096 1.548-.114 2.954-.657 4.197-1.578 1.611-1.193 2.128-2.821 1.738-4.751-.106-.523-.292-1.032-.474-1.537-.081-.227-.087-.387.062-.599 1.287-1.838 2.387-3.789 3.41-5.784a1.2 1.2 0 0 1 .153-.241c.332 1.725.831 3.387 1.725 4.896-.456.439-.908.838-1.316 1.277-.9.967-1.68 2.017-2.087 3.297-.175.552-.309 1.113-.231 1.703.121.915.871 1.51 1.771 1.302 1.927-.446 3.591-1.354 4.806-2.963.818-1.083.893-2.291.55-3.556-.094-.344-.205-.683-.325-1.077.475-.148.939-.325 1.418-.434 2.49-.568 4.952-.47 7.351.43 1.401.525 2.532 1.403 3.203 2.785.82 1.69.367 3.293-1.226 4.36-.148.1-.318.179-.441.303a.434.434 0 0 0-.103.335c.011.062.173.139.267.138.523-.004.948-.279 1.355-.561 1.021-.706 1.766-1.657 1.927-2.908l.031-.094-.038-.815c-.016-.047.011-.094.008-.13-.217-1.822-1.19-3.235-2.607-4.343-1.64-1.283-3.576-1.811-5.624-1.894a12.7 12.7 0 0 0-4.883.751c-.448.163-.892.355-1.343.537-.061-.11-.126-.215-.18-.323-.463-.948-1.024-1.854-1.148-2.941-.088-.772-.196-1.543-.012-2.307.176-.734.406-1.456.623-2.181.111-.373.033-.582-.323-.75a1.427 1.427 0 0 0-.393-.129 6.053 6.053 0 0 0-2.586.192c-.3.088-.518.256-.584.588-.038.19-.116.373-.17.56-.221.782-.378 1.579-.736 2.323-.897 1.868-1.921 3.665-2.969 5.449-.114.192-.233.381-.376.615-.368-.77-.76-1.461-.88-2.271-.134-.916-.24-1.831-.012-2.74.17-.678.391-1.343.595-2.012.096-.318.052-.485-.236-.653a1.388 1.388 0 0 0-.474-.184 5.822 5.822 0 0 0-2.677.219c-.272.088-.414.264-.497.544-.244.826-.452 1.672-.795 2.457-1.387 3.18-2.814 6.344-4.239 9.507-.298.66-.646 1.298-.982 1.94-.085.164-.209.307-.315.46-.085-.1-.118-.17-.117-.238.002-.407-.046-.825.031-1.218.235-1.19.505-2.372.79-3.55.234-.973.508-1.937.768-2.903.088-.324.09-.626-.143-.898-.39-.456-1.207-.556-1.69-.205l-.215.121.042-.345c.102-.74.122-1.476-.08-2.205-.254-.908-.902-1.43-1.844-1.401a3.94 3.94 0 0 0-1.306.248c-1.71.67-3.024 1.857-4.143 3.284a1.29 1.29 0 0 1-.379.327c-1.446.802-2.897 1.594-4.348 2.389l-1.614.885c-.433-.413-.827-.842-1.273-1.205-1.364-1.112-2.749-2.197-4.122-3.296-1.217-.975-2.396-1.99-3.298-3.28-.671-.96-1.104-2.011-1.145-3.198-.053-1.512.376-2.894 1.146-4.181.985-1.646 2.329-2.967 3.806-4.163 1.562-1.265 3.252-2.34 5.004-3.32 2.45-1.371 4.971-2.585 7.673-3.387 2.771-.822 5.583-1.292 8.483-.964 1.14.129 2.247.39 3.263.947.779.427 1.417.985 1.714 1.858.293.859.284 1.73.081 2.602-.412 1.767-1.38 3.224-2.597 4.525-1.997 2.134-4.433 3.586-7.176 4.546-1.582.553-3.21.9-4.882 1.041-1.365.115-2.7-.006-3.993-.481-.855-.314-1.6-.795-2.199-1.493-.107-.125-.244-.261-.444-.144-.195.115-.23.301-.164.49.11.313.21.639.381.919.428.702 1.053 1.212 1.741 1.649 1.322.84 2.799 1.123 4.33 1.188 2.324.1 4.592-.246 6.827-.87 3.192-.89 5.967-2.462 8.192-4.942 1.853-2.065 3.177-4.395 3.46-7.21.139-1.373-.009-2.718-.652-3.971-.697-1.358-1.806-2.367-3.132-3.063C34.378 9.09 32.294 8.5 30.143 8.5h-2.155c-2.605 0-5.124.747-7.572 1.637a52.012 52.012 0 0 0-5.434 2.352c-3.841 1.919-7.419 4.234-10.357 7.416-1.464 1.586-2.704 3.335-3.417 5.395-.208.603-.406 1.25-.555 1.873m13.92 18.007c-.167 2.229-1.178 4.037-2.829 5.5-.929.824-1.995 1.41-3.236 1.616-.45.074-.91.092-1.347-.094-.622-.266-.762-.819-.774-1.407-.018-.938.31-1.786.761-2.593.588-1.052 1.45-1.854 2.37-2.603 1.45-1.181 3.023-2.18 4.634-3.123l.122-.05c.249.92.367 1.829.298 2.754zm12.578-9.69c-.112.714-.27 1.42-.472 2.115-.719 2.388-1.643 4.703-2.641 6.986-.185.423-.453.808-.687 1.209a.844.844 0 0 1-.141.167c-.289.285-.563.27-.709-.103-.17-.434-.275-.899-.365-1.358-.06-.309-.046-.633-.065-.949.02-2.247.705-4.289 1.868-6.19.48-.784 1.002-1.531 1.8-2.027.244-.152.52-.275.797-.353.425-.12.686.077.615.503zm8.582 10.934l3.085-3.601c.128 1.337-2.145 4.007-3.085 3.601zm9.852-2.423c-.218.125-.456.215-.679.33-.205.106-.272-.001-.278-.177-.004-.12.013-.244.046-.36.417-1.47 1.183-2.723 2.324-3.743l.08-.041A3.304 3.304 0 0 1 45.585 44z" fill="#CB6699" fill-rule="evenodd"/></svg>