<svg viewBox="0 0 64 64" xmlns="http://www.w3.org/2000/svg"><path d="M55.186 8.461c-5.911-8.515-17.68-11.01-26.142-5.64L14.13 12.365c-4.068 2.55-6.888 6.726-7.702 11.444-.705 3.96-.108 8.027 1.79 11.553a16.375 16.375 0 0 0-2.55 6.4A18.249 18.249 0 0 0 8.76 55.539c5.966 8.515 17.682 11.01 26.143 5.64l14.915-9.49c4.068-2.55 6.888-6.726 7.702-11.445.705-3.96.108-8.027-1.79-11.552a16.375 16.375 0 0 0 2.549-6.4c.92-4.84-.2-9.845-3.093-13.832" fill="#FF3E00"/><path fill="#FFF" d="M27.58 56.353a11.822 11.822 0 0 1-12.692-4.72c-1.735-2.386-2.386-5.369-1.898-8.297.108-.489.217-.922.325-1.41l.271-.868.76.542a19.784 19.784 0 0 0 5.857 2.929l.543.163-.054.542a3.63 3.63 0 0 0 .596 2.224c.868 1.247 2.387 1.844 3.851 1.464.325-.108.65-.217.922-.38l14.861-9.491c.76-.488 1.247-1.193 1.41-2.061a3.366 3.366 0 0 0-.542-2.495c-.868-1.248-2.387-1.79-3.851-1.41-.325.108-.65.217-.922.38l-5.695 3.633a10.09 10.09 0 0 1-3.037 1.302 11.822 11.822 0 0 1-12.692-4.719c-1.681-2.386-2.386-5.37-1.844-8.298.488-2.82 2.224-5.37 4.665-6.888l14.915-9.492c.922-.596 1.952-1.03 3.037-1.356 4.802-1.245 9.87.64 12.692 4.72 1.735 2.386 2.386 5.369 1.898 8.297-.109.489-.217.922-.38 1.41l-.27.868-.76-.542a19.784 19.784 0 0 0-5.858-2.929l-.542-.163.054-.542a3.63 3.63 0 0 0-.597-2.224c-.867-1.247-2.386-1.79-3.85-1.41-.326.109-.651.217-.922.38l-14.862 9.491c-.759.489-1.247 1.194-1.41 2.061a3.37 3.37 0 0 0 .543 2.495c.867 1.248 2.386 1.79 3.85 1.41.326-.108.651-.216.923-.38l5.694-3.633c.923-.597 1.953-1.03 3.038-1.356 4.801-1.245 9.87.64 12.691 4.719 1.736 2.386 2.387 5.37 1.899 8.298-.489 2.82-2.224 5.37-4.665 6.888l-14.915 9.492c-.922.596-1.953 1.03-3.037 1.356"/></svg>