<svg viewBox="0 0 521 581" xmlns="http://www.w3.org/2000/svg"><path d="M235.604 574.1c-15.3-9-74.1-43.1-80.7-46.7l-5.3-2.9V184.1l-8.7 5.1c-18.5 10.7-101.5 58.7-125.6 72.5-8.1 4.7-15 8.4-15.2 8.2-.2-.2-.1-29.3.2-64.6l.6-64.3 7.6-4.4C44.304 115.8 247.904 0 248.704 0c.5 0 .9 111.9.9 290.5 0 231.7-.3 290.5-1.2 290.5-.7 0-6.5-3.1-12.8-6.9zm36-283.6c0-159.8.3-290.5.7-290.5.3 0 56.4 31.8 124.5 70.7l123.8 70.8v64.2c0 35.4-.2 64.3-.4 64.3-.3 0-3.1-1.5-6.3-3.4-3.2-1.9-16.1-9.4-28.8-16.6-29.7-17.1-61.2-35.4-89.7-51.9-12.5-7.2-23.2-13.1-23.7-13.1-1.6 0-1.5 62.2.1 63.8.7.7 17.5 10.5 37.5 21.9l36.3 20.7v55.8c0 30.7-.2 55.8-.5 55.8-.6 0-11.2-6-48.7-27.8-12.5-7.3-23.4-13.5-24.2-13.8-1.4-.6-1.6 7.4-1.6 81.3v81.8l-22.7 13.2c-12.6 7.2-34.5 19.9-48.8 28.2-14.3 8.3-26.3 15.1-26.7 15.1-.5 0-.8-130.7-.8-290.5z" fill="#FF8B01"/></svg>