<svg viewBox="0 0 64 64" xmlns="http://www.w3.org/2000/svg"><path d="M11.335 23.5H61.17v36.835H11.335z" fill="#FFF"/><path fill="#007ACC" d="M.75 31.955v31.25h62.5V.705H.75zm50.365-2.5a7.78 7.78 0 0 1 3.91 2.25 10.29 10.29 0 0 1 1.5 2c0 .08-2.7 1.905-4.345 2.925-.06.04-.3-.22-.565-.615a3.545 3.545 0 0 0-2.935-1.765c-1.895-.13-3.115.865-3.105 2.5a2.29 2.29 0 0 0 .27 1.17c.415.865 1.19 1.38 3.62 2.43 4.475 1.925 6.39 3.195 7.58 5 1.33 2 1.625 5.23.725 7.62-1 2.6-3.45 4.365-6.915 4.95a19.16 19.16 0 0 1-4.76-.05 11.5 11.5 0 0 1-6.36-3.315c-.575-.635-1.695-2.29-1.625-2.41a4.67 4.67 0 0 1 .575-.365L41 50.5l1.795-1.04.375.555a8.39 8.39 0 0 0 2.37 2.27c2 1.05 4.73.905 6.08-.31a2.715 2.715 0 0 0 .345-3.46c-.5-.695-1.5-1.28-4.295-2.5-3.225-1.39-4.615-2.25-5.885-3.62a8.24 8.24 0 0 1-1.715-3.125 12.5 12.5 0 0 1-.11-4c.665-3.115 3-5.29 6.41-5.935a15.83 15.83 0 0 1 4.745.13zm-14.67 2.62v2.56H28.33V57.75h-5.755V34.63H14.44v-2.5a24.595 24.595 0 0 1 .06-2.585c.04-.045 5-.045 11-.045h10.915z"/></svg>