<svg viewBox="0 0 64 64" xmlns="http://www.w3.org/2000/svg"><path d="M0 4.467l24.927.08L32.01 16.78l7.216-12.235L64 4.467l-31.917 55.07zm63.49.319l-12.18.01-19.238 33.026L12.845 4.796.471 4.786l31.605 53.945zm-12.575-.004l-11.372.083-7.527 12.324-7.408-12.324-11.397-.084L32.076 37.02zm-37.917-.086l11.501.005M13 4.696l11.5.005" fill="none"/><path fill="#35495E" d="M12.998 4.696l11.502.005 7.517 12.479L39.51 4.702 51 4.699 32.075 37.526z"/><path d="M.455 4.784L12.988 4.7l19.076 32.829L50.99 4.7l12.555.013-31.483 54.03z" fill="#41B883"/></svg>