<svg viewBox="0 0 64 64" xmlns="http://www.w3.org/2000/svg"><path d="M58.645 49.05L33.12 63.5V52.245L49 43.5l9.645 5.55zm1.75-1.58V17.275l-9.34 5.4V42.08l9.335 5.385zm-55.04 1.58l25.5 14.44V52.245L14.97 43.5zm-1.75-1.58V17.275l9.34 5.4V42.08zM4.7 15.32L30.88.5v10.88l-16.775 9.225-.135.075zm54.59 0L33.12.5v10.88l16.775 9.22.135.075 9.27-5.355z" fill="#8ED6FB"/><path fill="#1C78C0" d="M30.88 49.685L15.185 41.05V23.96L30.88 33zm2.24 0l15.695-8.625v-17.1L33.12 33zM16.25 22L32 13.33 47.75 22 32 31.08 16.25 22z"/></svg>